<svg width="252" height="152" viewBox="0 0 252 152" fill="none" xmlns="http://www.w3.org/2000/svg">
<g filter="url(#filter0_d)">
<path d="M12 7.99999C12 3.58172 15.5817 0 20 0H232C236.418 0 240 3.58172 240 8V110C240 114.418 236.418 118 232 118H158H142H137.845C135.415 118 133.116 119.105 131.598 121.002L126 128L120.402 121.002C118.884 119.105 116.585 118 114.155 118H110H94H20C15.5817 118 12 114.418 12 110L12 7.99999Z" fill="white"/>
<path d="M12.5 7.99999C12.5 3.85786 15.8579 0.5 20 0.5H232C236.142 0.5 239.5 3.85786 239.5 8V110C239.5 114.142 236.142 117.5 232 117.5H158H142H137.845C135.263 117.5 132.821 118.674 131.208 120.69L126 127.2L120.792 120.69C119.179 118.674 116.737 117.5 114.155 117.5H110H94H20C15.8579 117.5 12.5 114.142 12.5 110V7.99999Z" stroke="#3E7AFF" stroke-opacity="0.2"/>
</g>
<defs>
<filter id="filter0_d" x="0" y="0" width="252" height="152" filterUnits="userSpaceOnUse" color-interpolation-filters="sRGB">
<feFlood flood-opacity="0" result="BackgroundImageFix"/>
<feColorMatrix in="SourceAlpha" type="matrix" values="0 0 0 0 0 0 0 0 0 0 0 0 0 0 0 0 0 0 127 0"/>
<feOffset dy="12"/>
<feGaussianBlur stdDeviation="6"/>
<feColorMatrix type="matrix" values="0 0 0 0 0.0156863 0 0 0 0 0.145098 0 0 0 0 0.376471 0 0 0 0.04 0"/>
<feBlend mode="normal" in2="BackgroundImageFix" result="effect1_dropShadow"/>
<feBlend mode="normal" in="SourceGraphic" in2="effect1_dropShadow" result="shape"/>
</filter>
</defs>
</svg>
