<svg width="64" height="64" viewBox="0 0 64 64" fill="none" xmlns="http://www.w3.org/2000/svg">
<circle opacity="0.1" cx="32" cy="32" r="32" fill="#3E7AFF"/>
<path d="M20 18C20 16.8954 20.8954 16 22 16H32.0615H37.9692L44.1231 22.6462V32V46C44.1231 47.1046 43.2276 48 42.1231 48H22C20.8954 48 20 47.1046 20 46V18Z" fill="url(#paint0_linear)"/>
<path d="M39.9688 22.6462H44.1226L37.9688 16V20.6462C37.9688 21.7507 38.8642 22.6462 39.9688 22.6462Z" fill="url(#paint1_linear)"/>
<rect x="31.5693" y="42.0923" width="8.61538" height="1.72308" rx="0.861538" transform="rotate(-180 31.5693 42.0923)" fill="url(#paint2_linear)"/>
<rect x="40.6768" y="37.1689" width="17.7231" height="1.72308" rx="0.861538" transform="rotate(-180 40.6768 37.1689)" fill="url(#paint3_linear)"/>
<rect x="40.6768" y="32.2461" width="17.7231" height="1.72308" rx="0.861538" transform="rotate(-180 40.6768 32.2461)" fill="url(#paint4_linear)"/>
<rect x="40.6768" y="27.3232" width="17.7231" height="1.72308" rx="0.861538" transform="rotate(-180 40.6768 27.3232)" fill="url(#paint5_linear)"/>
<defs>
<linearGradient id="paint0_linear" x1="32.0615" y1="16" x2="32.0615" y2="48" gradientUnits="userSpaceOnUse">
<stop stop-color="#81A8FF"/>
<stop offset="1" stop-color="#DFE9FF"/>
</linearGradient>
<linearGradient id="paint1_linear" x1="41.0457" y1="16" x2="41.0457" y2="22.6462" gradientUnits="userSpaceOnUse">
<stop stop-color="#81A8FF"/>
<stop offset="1" stop-color="#DFE9FF"/>
</linearGradient>
<linearGradient id="paint2_linear" x1="35.877" y1="42.0923" x2="35.877" y2="43.8154" gradientUnits="userSpaceOnUse">
<stop stop-color="#81A8FF"/>
<stop offset="1" stop-color="#DFE9FF"/>
</linearGradient>
<linearGradient id="paint3_linear" x1="49.5383" y1="37.1689" x2="49.5383" y2="38.892" gradientUnits="userSpaceOnUse">
<stop stop-color="#81A8FF"/>
<stop offset="1" stop-color="#DFE9FF"/>
</linearGradient>
<linearGradient id="paint4_linear" x1="49.5383" y1="32.2461" x2="49.5383" y2="33.9692" gradientUnits="userSpaceOnUse">
<stop stop-color="#81A8FF"/>
<stop offset="1" stop-color="#DFE9FF"/>
</linearGradient>
<linearGradient id="paint5_linear" x1="49.5383" y1="27.3232" x2="49.5383" y2="29.0463" gradientUnits="userSpaceOnUse">
<stop stop-color="#81A8FF"/>
<stop offset="1" stop-color="#DFE9FF"/>
</linearGradient>
</defs>
</svg>
