<svg width="328" height="268" viewBox="0 0 328 268" fill="none" xmlns="http://www.w3.org/2000/svg">
<path d="M77.4948 183.392C73.6683 181.183 73.6683 177.602 77.4948 175.393L108.226 157.651L126.672 147.003L166.638 147.89L195.843 164.75L238.872 189.591C242.698 191.8 242.698 195.381 238.872 197.59L177.409 233.073C173.582 235.282 167.379 235.282 163.552 233.073L77.4948 183.392Z" fill="url(#paint0_linear)"/>
<path d="M154.352 154.982L166.638 147.89L126.672 147.002L140.495 154.982C144.321 157.191 150.525 157.191 154.352 154.982Z" fill="url(#paint1_linear)"/>
<rect width="31.0607" height="6.21214" rx="3.10607" transform="matrix(-0.866044 0.499967 -0.866044 -0.499967 188.158 205.57)" fill="url(#paint2_linear)"/>
<rect width="63.8963" height="6.21214" rx="3.10607" transform="matrix(-0.866044 0.499967 -0.866044 -0.499967 201.224 180.28)" fill="url(#paint3_linear)"/>
<rect width="63.8963" height="6.21214" rx="3.10607" transform="matrix(-0.866044 0.499967 -0.866044 -0.499967 185.852 171.406)" fill="url(#paint4_linear)"/>
<rect width="63.8963" height="6.21214" rx="3.10607" transform="matrix(-0.866044 0.499967 -0.866044 -0.499967 170.48 162.532)" fill="url(#paint5_linear)"/>
<path d="M18.8014 116.251C14.975 114.042 14.975 110.46 18.8014 108.251L77.0478 74.6255L108.97 56.1967L178.135 57.7325L228.679 86.9113L308.207 132.823C312.033 135.032 312.033 138.613 308.207 140.822L191.714 208.074C187.888 210.283 181.684 210.283 177.857 208.074L18.8014 116.251Z" fill="url(#paint6_linear)"/>
<path d="M151.811 72.9293L178.135 57.7324L108.97 56.1967L137.954 72.9293C141.78 75.1383 147.984 75.1383 151.811 72.9293Z" fill="url(#paint7_linear)"/>
<rect width="53.754" height="10.7508" rx="5" transform="matrix(-0.866044 0.499967 -0.866044 -0.499967 215.379 157.555)" fill="url(#paint8_linear)"/>
<rect width="110.58" height="10.7508" rx="5" transform="matrix(-0.866044 0.499967 -0.866044 -0.499967 237.989 113.786)" fill="url(#paint9_linear)"/>
<rect width="110.58" height="10.7508" rx="5" transform="matrix(-0.866044 0.499967 -0.866044 -0.499967 211.388 98.4292)" fill="url(#paint10_linear)"/>
<rect width="110.58" height="10.7508" rx="5" transform="matrix(-0.866044 0.499967 -0.866044 -0.499967 184.785 83.0717)" fill="url(#paint11_linear)"/>
<g opacity="0.5">
<circle r="16.3296" transform="matrix(0.866044 -0.499967 0.866044 0.499967 51.0001 229.475)" fill="url(#paint12_linear)"/>
<circle opacity="0.3" r="8.88357" transform="matrix(0.866044 -0.499967 0.866044 0.499967 279.835 229.606)" fill="url(#paint13_linear)"/>
</g>
<g opacity="0.5">
<circle r="4.68089" transform="matrix(-0.866044 0.499967 0.866044 0.499967 179.107 27.6806)" fill="url(#paint14_linear)"/>
</g>
<defs>
<linearGradient id="paint0_linear" x1="108.226" y1="157.651" x2="158.177" y2="244.176" gradientUnits="userSpaceOnUse">
<stop stop-color="#40ECAE"/>
<stop offset="1" stop-color="#D6FFF0"/>
</linearGradient>
<linearGradient id="paint1_linear" x1="136.279" y1="141.456" x2="146.653" y2="159.427" gradientUnits="userSpaceOnUse">
<stop stop-color="#40ECAE"/>
<stop offset="1" stop-color="#D6FFF0"/>
</linearGradient>
<linearGradient id="paint2_linear" x1="15.5304" y1="0" x2="15.5304" y2="6.21214" gradientUnits="userSpaceOnUse">
<stop stop-color="#40ECAE"/>
<stop offset="1" stop-color="#D6FFF0"/>
</linearGradient>
<linearGradient id="paint3_linear" x1="31.9482" y1="0" x2="31.9482" y2="6.21214" gradientUnits="userSpaceOnUse">
<stop stop-color="#40ECAE"/>
<stop offset="1" stop-color="#D6FFF0"/>
</linearGradient>
<linearGradient id="paint4_linear" x1="31.9482" y1="0" x2="31.9482" y2="6.21214" gradientUnits="userSpaceOnUse">
<stop stop-color="#40ECAE"/>
<stop offset="1" stop-color="#D6FFF0"/>
</linearGradient>
<linearGradient id="paint5_linear" x1="31.9482" y1="0" x2="31.9482" y2="6.21214" gradientUnits="userSpaceOnUse">
<stop stop-color="#40ECAE"/>
<stop offset="1" stop-color="#D6FFF0"/>
</linearGradient>
<linearGradient id="paint6_linear" x1="77.0478" y1="74.6255" x2="163.493" y2="224.366" gradientUnits="userSpaceOnUse">
<stop stop-color="#81A8FF"/>
<stop offset="1" stop-color="#DFE9FF"/>
</linearGradient>
<linearGradient id="paint7_linear" x1="168.999" y1="96.0001" x2="171.148" y2="60.2411" gradientUnits="userSpaceOnUse">
<stop stop-color="#81A8FF"/>
<stop offset="1" stop-color="#DFE9FF"/>
</linearGradient>
<linearGradient id="paint8_linear" x1="26.877" y1="0" x2="26.877" y2="10.7508" gradientUnits="userSpaceOnUse">
<stop stop-color="#81A8FF"/>
<stop offset="1" stop-color="#DFE9FF"/>
</linearGradient>
<linearGradient id="paint9_linear" x1="55.2899" y1="0" x2="55.2899" y2="10.7508" gradientUnits="userSpaceOnUse">
<stop stop-color="#81A8FF"/>
<stop offset="1" stop-color="#DFE9FF"/>
</linearGradient>
<linearGradient id="paint10_linear" x1="55.2899" y1="0" x2="55.2899" y2="10.7508" gradientUnits="userSpaceOnUse">
<stop stop-color="#81A8FF"/>
<stop offset="1" stop-color="#DFE9FF"/>
</linearGradient>
<linearGradient id="paint11_linear" x1="55.2899" y1="0" x2="55.2899" y2="10.7508" gradientUnits="userSpaceOnUse">
<stop stop-color="#81A8FF"/>
<stop offset="1" stop-color="#DFE9FF"/>
</linearGradient>
<linearGradient id="paint12_linear" x1="16.3296" y1="0" x2="16.3296" y2="32.6592" gradientUnits="userSpaceOnUse">
<stop stop-color="#81A8FF"/>
<stop offset="1" stop-color="#DFE9FF"/>
</linearGradient>
<linearGradient id="paint13_linear" x1="8.88357" y1="0" x2="8.88357" y2="17.7671" gradientUnits="userSpaceOnUse">
<stop stop-color="#81A8FF"/>
<stop offset="1" stop-color="#DFE9FF"/>
</linearGradient>
<linearGradient id="paint14_linear" x1="4.68089" y1="0" x2="4.68089" y2="9.36178" gradientUnits="userSpaceOnUse">
<stop stop-color="#40ECAE"/>
<stop offset="1" stop-color="#D6FFF0"/>
</linearGradient>
</defs>
</svg>
