<svg width="34" height="46" viewBox="0 0 34 46" fill="none" xmlns="http://www.w3.org/2000/svg">
<path d="M0 8C0 3.58172 3.58172 0 8 0L33.9524 0C33.2321 1.44052 32.8571 3.02895 32.8571 4.6395V23V41.8758C32.8571 43.3224 33.2347 44.744 33.9524 46H8C3.58172 46 0 42.4183 0 38L0 8Z" fill="url(#paint0_linear)"/>
<g filter="url(#filter0_f)">
<path d="M4.29297 12.7399L5.07219 10.1829H5.5105L6.28972 12.7399H5.87576L5.7053 12.1482H4.87434L4.70084 12.7399H4.29297ZM4.98087 11.7829H5.59877L5.2883 10.7199L4.98087 11.7829Z" fill="white"/>
<path d="M6.45765 12.7399V12.3637L7.22774 11.3153H6.46679V10.9281H7.67214V11.3044L6.88988 12.3527H7.68736V12.7399H6.45765Z" fill="white"/>
<path d="M8.69948 12.7838C8.55135 12.7838 8.42046 12.7448 8.30683 12.6669C8.19319 12.589 8.1039 12.483 8.03897 12.3491C7.97606 12.2127 7.94461 12.0617 7.94461 11.8961C7.94461 11.8693 7.94461 11.8413 7.94461 11.8121C7.94664 11.7829 7.94867 11.7524 7.9507 11.7208H9.09822C9.09011 11.5795 9.04851 11.4687 8.97343 11.3884C8.90037 11.308 8.81109 11.2678 8.70557 11.2678C8.62643 11.2678 8.55946 11.2897 8.50468 11.3336C8.45192 11.375 8.41235 11.4298 8.38597 11.498H7.99027C8.01868 11.3835 8.06535 11.28 8.13028 11.1875C8.19725 11.0925 8.27842 11.0182 8.37379 10.9646C8.47119 10.9111 8.58077 10.8843 8.70252 10.8843C8.85472 10.8843 8.98966 10.9232 9.10735 11.0012C9.22505 11.0791 9.31738 11.1887 9.38434 11.3299C9.45131 11.4712 9.48479 11.6343 9.48479 11.8194C9.48479 12.0069 9.45131 12.1737 9.38434 12.3199C9.31941 12.466 9.22809 12.5804 9.1104 12.6632C8.9927 12.7436 8.85573 12.7838 8.69948 12.7838ZM8.69948 12.4039C8.79485 12.4039 8.87907 12.3722 8.95212 12.3089C9.02517 12.2432 9.07184 12.1445 9.09213 12.013H8.34031C8.3464 12.1323 8.38292 12.2273 8.44989 12.2979C8.51685 12.3686 8.60005 12.4039 8.69948 12.4039Z" fill="white"/>
<path d="M9.83074 12.7399V10.9281H10.1777L10.2143 11.2678C10.269 11.1509 10.3431 11.0584 10.4365 10.9902C10.5318 10.9196 10.6434 10.8843 10.7713 10.8843V11.3774H10.6617C10.5765 11.3774 10.5004 11.3932 10.4334 11.4249C10.3665 11.4566 10.3137 11.5114 10.2751 11.5893C10.2386 11.6672 10.2203 11.7756 10.2203 11.9144V12.7399H9.83074Z" fill="white"/>
<path d="M11.9325 12.7838C11.8188 12.7838 11.7194 12.7582 11.6342 12.7071C11.5489 12.6559 11.4799 12.5841 11.4272 12.4915L11.3846 12.7399H11.0376V10.1099H11.4272V11.1875C11.4759 11.1071 11.5398 11.0365 11.6189 10.9756C11.7001 10.9147 11.8046 10.8843 11.9325 10.8843C12.0745 10.8843 12.2013 10.9257 12.3129 11.0085C12.4245 11.0913 12.5128 11.2045 12.5777 11.3482C12.6427 11.4919 12.6751 11.655 12.6751 11.8377C12.6751 12.0203 12.6427 12.1835 12.5777 12.3272C12.5128 12.4684 12.4245 12.5804 12.3129 12.6632C12.2013 12.7436 12.0745 12.7838 11.9325 12.7838ZM11.8503 12.3747C11.9741 12.3747 12.0765 12.3247 12.1577 12.2249C12.2389 12.125 12.2795 11.996 12.2795 11.8377C12.2795 11.6794 12.2389 11.5491 12.1577 11.4468C12.0765 11.3445 11.9741 11.2934 11.8503 11.2934C11.7245 11.2934 11.621 11.3445 11.5398 11.4468C11.4607 11.5467 11.4211 11.6757 11.4211 11.834C11.4211 11.9923 11.4607 12.1226 11.5398 12.2249C11.621 12.3247 11.7245 12.3747 11.8503 12.3747Z" fill="white"/>
<path d="M13.5437 12.7838C13.4138 12.7838 13.3073 12.7594 13.2241 12.7107C13.1409 12.6596 13.079 12.5926 13.0384 12.5098C12.9978 12.427 12.9775 12.3357 12.9775 12.2358C12.9775 12.0678 13.0323 11.9314 13.1419 11.8267C13.2515 11.722 13.4158 11.6696 13.635 11.6696H14.0185V11.6258C14.0185 11.5016 13.9891 11.4103 13.9303 11.3518C13.8714 11.2934 13.7984 11.2642 13.7111 11.2642C13.632 11.2642 13.563 11.2873 13.5041 11.3336C13.4453 11.3774 13.4087 11.4432 13.3945 11.5308H13.0141C13.0242 11.3993 13.0607 11.2849 13.1236 11.1875C13.1886 11.0901 13.2718 11.0158 13.3732 10.9646C13.4747 10.9111 13.5883 10.8843 13.7141 10.8843C13.9292 10.8843 14.0987 10.9488 14.2225 11.0779C14.3462 11.2069 14.4081 11.3896 14.4081 11.6258V12.7399H14.0764L14.0398 12.4477C13.9952 12.5451 13.9323 12.6255 13.8511 12.6888C13.772 12.7521 13.6695 12.7838 13.5437 12.7838ZM13.632 12.4185C13.7436 12.4185 13.8298 12.3747 13.8907 12.287C13.9536 12.1993 13.9932 12.0909 14.0094 11.9619H13.6776C13.5741 11.9619 13.5001 11.985 13.4554 12.0313C13.4108 12.0751 13.3884 12.1299 13.3884 12.1957C13.3884 12.2663 13.4108 12.3211 13.4554 12.36C13.5001 12.399 13.5589 12.4185 13.632 12.4185Z" fill="white"/>
<path d="M14.9181 13.5436L15.2682 12.6194H15.1768L14.5894 10.9281H15.0125L15.4356 12.203L15.8769 10.9281H16.2909L15.3321 13.5436H14.9181Z" fill="white"/>
<path d="M17.1544 12.7838C17.0002 12.7838 16.8643 12.7436 16.7466 12.6632C16.6289 12.5829 16.5355 12.4708 16.4665 12.3272C16.3996 12.1835 16.3661 12.0191 16.3661 11.834C16.3661 11.6489 16.3996 11.4846 16.4665 11.3409C16.5355 11.1972 16.6289 11.0852 16.7466 11.0048C16.8643 10.9245 17.0002 10.8843 17.1544 10.8843C17.3472 10.8843 17.5096 10.9452 17.6415 11.0669C17.7734 11.1862 17.8576 11.3518 17.8941 11.5637H17.4832C17.4629 11.476 17.4223 11.4079 17.3614 11.3592C17.3026 11.308 17.2326 11.2824 17.1514 11.2824C17.0439 11.2824 16.9525 11.3311 16.8775 11.4286C16.8024 11.526 16.7648 11.6611 16.7648 11.834C16.7648 12.0069 16.8024 12.1421 16.8775 12.2395C16.9525 12.3369 17.0439 12.3856 17.1514 12.3856C17.2326 12.3856 17.3026 12.3613 17.3614 12.3126C17.4223 12.2639 17.4629 12.1944 17.4832 12.1043H17.8941C17.8576 12.3089 17.7734 12.4733 17.6415 12.5975C17.5096 12.7217 17.3472 12.7838 17.1544 12.7838Z" fill="white"/>
<path d="M18.7604 12.7838C18.6305 12.7838 18.524 12.7594 18.4408 12.7107C18.3576 12.6596 18.2957 12.5926 18.2551 12.5098C18.2145 12.427 18.1943 12.3357 18.1943 12.2358C18.1943 12.0678 18.249 11.9314 18.3586 11.8267C18.4682 11.722 18.6326 11.6696 18.8517 11.6696H19.2352V11.6258C19.2352 11.5016 19.2058 11.4103 19.147 11.3518C19.0881 11.2934 19.0151 11.2642 18.9278 11.2642C18.8487 11.2642 18.7797 11.2873 18.7208 11.3336C18.662 11.3774 18.6255 11.4432 18.6113 11.5308H18.2308C18.2409 11.3993 18.2774 11.2849 18.3404 11.1875C18.4053 11.0901 18.4885 11.0158 18.5899 10.9646C18.6914 10.9111 18.805 10.8843 18.9309 10.8843C19.146 10.8843 19.3154 10.9488 19.4392 11.0779C19.563 11.2069 19.6248 11.3896 19.6248 11.6258V12.7399H19.2931L19.2565 12.4477C19.2119 12.5451 19.149 12.6255 19.0678 12.6888C18.9887 12.7521 18.8862 12.7838 18.7604 12.7838ZM18.8487 12.4185C18.9603 12.4185 19.0465 12.3747 19.1074 12.287C19.1703 12.1993 19.2099 12.0909 19.2261 11.9619H18.8943C18.7908 11.9619 18.7168 11.985 18.6721 12.0313C18.6275 12.0751 18.6052 12.1299 18.6052 12.1957C18.6052 12.2663 18.6275 12.3211 18.6721 12.36C18.7168 12.399 18.7756 12.4185 18.8487 12.4185Z" fill="white"/>
<path d="M19.9966 12.7399V10.9281H20.3406L20.371 11.235C20.4177 11.1278 20.4847 11.0426 20.5719 10.9793C20.6612 10.9159 20.7657 10.8843 20.8854 10.8843C21.0721 10.8843 21.2172 10.9549 21.3207 11.0961C21.4242 11.2374 21.4759 11.4444 21.4759 11.7171V12.7399H21.0863V11.761C21.0863 11.6051 21.06 11.4858 21.0072 11.403C20.9544 11.3202 20.8723 11.2788 20.7606 11.2788C20.6511 11.2788 20.5608 11.3251 20.4897 11.4176C20.4208 11.5101 20.3863 11.6392 20.3863 11.8048V12.7399H19.9966Z" fill="white"/>
<path d="M23.2678 12.7838C23.1257 12.7838 22.9989 12.7424 22.8873 12.6596C22.7757 12.5768 22.6874 12.4635 22.6225 12.3199C22.5576 12.1762 22.5251 12.013 22.5251 11.8304C22.5251 11.6477 22.5576 11.4858 22.6225 11.3445C22.6874 11.2009 22.7757 11.0888 22.8873 11.0085C22.9989 10.9257 23.1257 10.8843 23.2678 10.8843C23.3814 10.8843 23.4809 10.9098 23.5661 10.961C23.6513 11.0121 23.7203 11.084 23.7731 11.1765V10.1099H24.1627V12.7399H23.8157L23.7731 12.4806C23.7244 12.561 23.6594 12.6316 23.5783 12.6925C23.4991 12.7533 23.3956 12.7838 23.2678 12.7838ZM23.35 12.3747C23.4758 12.3747 23.5783 12.3247 23.6574 12.2249C23.7386 12.1226 23.7792 11.9923 23.7792 11.834C23.7792 11.6757 23.7386 11.5467 23.6574 11.4468C23.5783 11.3445 23.4758 11.2934 23.35 11.2934C23.2262 11.2934 23.1237 11.3433 23.0425 11.4432C22.9614 11.543 22.9208 11.6721 22.9208 11.8304C22.9208 11.9887 22.9614 12.119 23.0425 12.2212C23.1237 12.3235 23.2262 12.3747 23.35 12.3747Z" fill="white"/>
<path d="M24.7694 10.6468C24.6984 10.6468 24.6396 10.6213 24.5929 10.5701C24.5483 10.519 24.5259 10.4545 24.5259 10.3765C24.5259 10.2986 24.5483 10.2353 24.5929 10.1866C24.6396 10.1354 24.6984 10.1099 24.7694 10.1099C24.8405 10.1099 24.8983 10.1354 24.9429 10.1866C24.9896 10.2353 25.0129 10.2986 25.0129 10.3765C25.0129 10.4545 24.9896 10.519 24.9429 10.5701C24.8983 10.6213 24.8405 10.6468 24.7694 10.6468ZM24.5746 12.7399V10.9281H24.9642V12.7399H24.5746Z" fill="white"/>
<path d="M25.3709 12.7399V10.1099H25.7605V12.7399H25.3709Z" fill="white"/>
<path d="M26.3686 10.6468C26.2976 10.6468 26.2388 10.6213 26.1921 10.5701C26.1475 10.519 26.1251 10.4545 26.1251 10.3765C26.1251 10.2986 26.1475 10.2353 26.1921 10.1866C26.2388 10.1354 26.2976 10.1099 26.3686 10.1099C26.4397 10.1099 26.4975 10.1354 26.5421 10.1866C26.5888 10.2353 26.6121 10.2986 26.6121 10.3765C26.6121 10.4545 26.5888 10.519 26.5421 10.5701C26.4975 10.6213 26.4397 10.6468 26.3686 10.6468ZM26.1738 12.7399V10.9281H26.5634V12.7399H26.1738Z" fill="white"/>
</g>
<g filter="url(#filter1_f)">
<path d="M5.66513 39.1045C5.01704 39.1045 4.4854 39.0097 4.07021 38.8202C3.65503 38.6212 3.34617 38.3606 3.14364 38.0384C2.94111 37.7162 2.83984 37.3609 2.83984 36.9723C2.83984 36.3185 3.11326 35.7878 3.66009 35.3804C4.20692 34.9729 5.02717 34.7692 6.12083 34.7692H8.03473V34.5986C8.03473 34.1153 7.8879 33.7599 7.59423 33.5325C7.30056 33.3051 6.93601 33.1914 6.50057 33.1914C6.10564 33.1914 5.76134 33.2814 5.46767 33.4614C5.174 33.632 4.99172 33.8879 4.92084 34.229H3.02212C3.07275 33.7173 3.25503 33.2719 3.56895 32.8929C3.893 32.5138 4.30818 32.2248 4.81451 32.0258C5.32083 31.8173 5.88792 31.7131 6.51576 31.7131C7.58917 31.7131 8.43473 31.9642 9.05244 32.4665C9.67016 32.9687 9.97902 33.6794 9.97902 34.5986V38.9339H8.32334L8.14106 37.7968C7.91828 38.1758 7.60436 38.4885 7.1993 38.7349C6.80436 38.9813 6.29298 39.1045 5.66513 39.1045ZM6.10564 37.6831C6.66259 37.6831 7.09297 37.5125 7.39676 37.1713C7.71069 36.8302 7.90815 36.4085 7.98916 35.9063H6.33348C5.81703 35.9063 5.44741 35.9963 5.22463 36.1764C5.00185 36.3469 4.89046 36.5601 4.89046 36.816C4.89046 37.0908 5.00185 37.304 5.22463 37.4556C5.44741 37.6072 5.74108 37.6831 6.10564 37.6831Z" fill="white"/>
<path d="M16.3002 39.1045C15.7331 39.1045 15.2369 39.005 14.8116 38.806C14.3863 38.607 14.042 38.3274 13.7787 37.9673L13.566 38.9339H11.8344V28.6997H13.7787V32.8929C14.0217 32.5802 14.3407 32.3054 14.7357 32.0685C15.1407 31.8316 15.6622 31.7131 16.3002 31.7131C17.0091 31.7131 17.642 31.8742 18.1989 32.1964C18.7559 32.5186 19.1964 32.9592 19.5204 33.5183C19.8445 34.0774 20.0065 34.7123 20.0065 35.423C20.0065 36.1337 19.8445 36.7686 19.5204 37.3277C19.1964 37.8773 18.7559 38.3132 18.1989 38.6354C17.642 38.9481 17.0091 39.1045 16.3002 39.1045ZM15.8901 37.5125C16.5078 37.5125 17.0192 37.3182 17.4242 36.9297C17.8293 36.5412 18.0318 36.0389 18.0318 35.423C18.0318 34.8071 17.8293 34.3001 17.4242 33.9021C17.0192 33.5041 16.5078 33.3051 15.8901 33.3051C15.2622 33.3051 14.7458 33.5041 14.3407 33.9021C13.9458 34.2906 13.7483 34.7928 13.7483 35.4088C13.7483 36.0247 13.9458 36.5317 14.3407 36.9297C14.7458 37.3182 15.2622 37.5125 15.8901 37.5125Z" fill="white"/>
<path d="M25.4345 39.1045C24.6648 39.1045 23.9864 38.9481 23.399 38.6354C22.8117 38.3227 22.3459 37.8868 22.0016 37.3277C21.6674 36.7686 21.5003 36.129 21.5003 35.4088C21.5003 34.6886 21.6674 34.049 22.0016 33.4899C22.3459 32.9308 22.8117 32.4949 23.399 32.1822C23.9864 31.8695 24.6648 31.7131 25.4345 31.7131C26.3965 31.7131 27.2066 31.95 27.8648 32.4238C28.523 32.8881 28.9433 33.5325 29.1256 34.3569H27.0749C26.9737 34.0158 26.7712 33.7505 26.4674 33.5609C26.1737 33.3619 25.8243 33.2625 25.4193 33.2625C24.8826 33.2625 24.4269 33.452 24.0522 33.831C23.6775 34.2101 23.4902 34.736 23.4902 35.4088C23.4902 36.0816 23.6775 36.6075 24.0522 36.9866C24.4269 37.3656 24.8826 37.5551 25.4193 37.5551C25.8243 37.5551 26.1737 37.4604 26.4674 37.2708C26.7712 37.0813 26.9737 36.8113 27.0749 36.4606H29.1256C28.9433 37.2566 28.523 37.8963 27.8648 38.3795C27.2066 38.8628 26.3965 39.1045 25.4345 39.1045Z" fill="white"/>
</g>
<defs>
<filter id="filter0_f" x="3.29297" y="9.10986" width="24.3192" height="5.43372" filterUnits="userSpaceOnUse" color-interpolation-filters="sRGB">
<feFlood flood-opacity="0" result="BackgroundImageFix"/>
<feBlend mode="normal" in="SourceGraphic" in2="BackgroundImageFix" result="shape"/>
<feGaussianBlur stdDeviation="0.5" result="effect1_foregroundBlur"/>
</filter>
<filter id="filter1_f" x="1.83984" y="27.6997" width="28.2857" height="12.4048" filterUnits="userSpaceOnUse" color-interpolation-filters="sRGB">
<feFlood flood-opacity="0" result="BackgroundImageFix"/>
<feBlend mode="normal" in="SourceGraphic" in2="BackgroundImageFix" result="shape"/>
<feGaussianBlur stdDeviation="0.5" result="effect1_foregroundBlur"/>
</filter>
<linearGradient id="paint0_linear" x1="16.9762" y1="0" x2="16.9762" y2="46" gradientUnits="userSpaceOnUse">
<stop stop-color="#6B99FF"/>
<stop offset="1" stop-color="#B4CBFF"/>
</linearGradient>
</defs>
</svg>
