<svg width="38" height="46" viewBox="0 0 38 46" fill="none" xmlns="http://www.w3.org/2000/svg">
<path d="M13.1602 20.6895C13.1602 16.2712 16.7419 12.6895 21.1602 12.6895H37.7464C37.2248 13.7326 36.9533 14.8828 36.9533 16.0491V29.3446V43.0133C36.9533 44.0609 37.2266 45.0903 37.7464 45.9998H21.1602C16.7419 45.9998 13.1602 42.4181 13.1602 37.9998V20.6895Z" fill="url(#paint0_linear)"/>
<g filter="url(#filter0_f)">
<path d="M16.7285 22.5613V19.9036H17.6411C17.8399 19.9036 18.0033 19.9403 18.1311 20.0137C18.2613 20.0846 18.3584 20.182 18.4223 20.306C18.4862 20.4275 18.5181 20.5629 18.5181 20.7123C18.5181 20.8743 18.4779 21.0224 18.3974 21.1565C18.3193 21.2907 18.1962 21.3881 18.0281 21.4489L18.543 22.5613H18.021L17.5594 21.5134H17.183V22.5613H16.7285ZM17.183 21.1565H17.6127C17.7642 21.1565 17.8754 21.1173 17.9465 21.0388C18.0175 20.9603 18.053 20.8566 18.053 20.7275C18.053 20.6009 18.0175 20.4997 17.9465 20.4237C17.8778 20.3478 17.7654 20.3098 17.6091 20.3098H17.183V21.1565Z" fill="url(#paint1_linear)"/>
<path d="M19.1752 20.3858C19.0924 20.3858 19.0237 20.3592 18.9693 20.306C18.9172 20.2529 18.8912 20.1858 18.8912 20.1048C18.8912 20.0238 18.9172 19.958 18.9693 19.9074C19.0237 19.8542 19.0924 19.8276 19.1752 19.8276C19.2581 19.8276 19.3255 19.8542 19.3776 19.9074C19.4321 19.958 19.4593 20.0238 19.4593 20.1048C19.4593 20.1858 19.4321 20.2529 19.3776 20.306C19.3255 20.3592 19.2581 20.3858 19.1752 20.3858ZM18.948 22.5613V20.6781H19.4025V22.5613H18.948Z" fill="url(#paint2_linear)"/>
<path d="M20.097 23.3966L20.5054 22.436H20.3989L19.7135 20.6781H20.2071L20.7007 22.0032L21.2156 20.6781H21.6985L20.5799 23.3966H20.097Z" fill="url(#paint3_linear)"/>
<path d="M22.4641 22.6069C22.3126 22.6069 22.1883 22.5816 22.0913 22.5309C21.9942 22.4778 21.922 22.4082 21.8747 22.3221C21.8273 22.2361 21.8036 22.1411 21.8036 22.0374C21.8036 21.8627 21.8676 21.721 21.9954 21.6121C22.1232 21.5033 22.315 21.4489 22.5706 21.4489H23.018V21.4033C23.018 21.2742 22.9837 21.1793 22.9151 21.1185C22.8464 21.0578 22.7612 21.0274 22.6594 21.0274C22.5671 21.0274 22.4866 21.0515 22.4179 21.0996C22.3493 21.1451 22.3067 21.2135 22.2901 21.3046H21.8462C21.8581 21.1679 21.9007 21.0489 21.9741 20.9477C22.0498 20.8464 22.1469 20.7692 22.2652 20.7161C22.3836 20.6604 22.5162 20.6326 22.6629 20.6326C22.9139 20.6326 23.1115 20.6996 23.2559 20.8338C23.4003 20.9679 23.4725 21.1578 23.4725 21.4033V22.5613H23.0855L23.0429 22.2576C22.9908 22.3588 22.9174 22.4423 22.8227 22.5082C22.7304 22.574 22.6109 22.6069 22.4641 22.6069ZM22.5671 22.2272C22.6973 22.2272 22.7979 22.1816 22.8689 22.0905C22.9423 21.9994 22.9884 21.8868 23.0074 21.7526H22.6203C22.4996 21.7526 22.4132 21.7766 22.3611 21.8247C22.309 21.8703 22.283 21.9273 22.283 21.9956C22.283 22.069 22.309 22.1259 22.3611 22.1664C22.4132 22.2069 22.4819 22.2272 22.5671 22.2272Z" fill="url(#paint4_linear)"/>
<path d="M23.7926 22.5613V22.1702L24.691 21.0806H23.8033V20.6781H25.2094V21.0692L24.2969 22.1589H25.2272V22.5613H23.7926Z" fill="url(#paint5_linear)"/>
<path d="M25.8504 20.3858C25.7676 20.3858 25.6989 20.3592 25.6445 20.306C25.5924 20.2529 25.5664 20.1858 25.5664 20.1048C25.5664 20.0238 25.5924 19.958 25.6445 19.9074C25.6989 19.8542 25.7676 19.8276 25.8504 19.8276C25.9333 19.8276 26.0007 19.8542 26.0528 19.9074C26.1073 19.958 26.1345 20.0238 26.1345 20.1048C26.1345 20.1858 26.1073 20.2529 26.0528 20.306C26.0007 20.3592 25.9333 20.3858 25.8504 20.3858ZM25.6232 22.5613V20.6781H26.0777V22.5613H25.6232Z" fill="url(#paint6_linear)"/>
<path d="M26.7722 23.3966L27.1806 22.436H27.0741L26.3887 20.6781H26.8823L27.3759 22.0032L27.8908 20.6781H28.3737L27.2551 23.3966H26.7722Z" fill="url(#paint7_linear)"/>
<path d="M28.891 23.3966L29.2993 22.436H29.1928L28.5075 20.6781H29.001L29.4946 22.0032L30.0095 20.6781H30.4924L29.3739 23.3966H28.891Z" fill="url(#paint8_linear)"/>
<path d="M31.258 22.6069C31.1065 22.6069 30.9822 22.5816 30.8852 22.5309C30.7881 22.4778 30.7159 22.4082 30.6686 22.3221C30.6212 22.2361 30.5976 22.1411 30.5976 22.0374C30.5976 21.8627 30.6615 21.721 30.7893 21.6121C30.9171 21.5033 31.1089 21.4489 31.3645 21.4489H31.812V21.4033C31.812 21.2742 31.7776 21.1793 31.709 21.1185C31.6403 21.0578 31.5551 21.0274 31.4533 21.0274C31.361 21.0274 31.2805 21.0515 31.2119 21.0996C31.1432 21.1451 31.1006 21.2135 31.084 21.3046H30.6402C30.652 21.1679 30.6946 21.0489 30.768 20.9477C30.8438 20.8464 30.9408 20.7692 31.0592 20.7161C31.1775 20.6604 31.3101 20.6326 31.4569 20.6326C31.7078 20.6326 31.9055 20.6996 32.0499 20.8338C32.1943 20.9679 32.2665 21.1578 32.2665 21.4033V22.5613H31.8794L31.8368 22.2576C31.7847 22.3588 31.7113 22.4423 31.6167 22.5082C31.5243 22.574 31.4048 22.6069 31.258 22.6069ZM31.361 22.2272C31.4912 22.2272 31.5918 22.1816 31.6628 22.0905C31.7362 21.9994 31.7824 21.8868 31.8013 21.7526H31.4143C31.2935 21.7526 31.2071 21.7766 31.155 21.8247C31.103 21.8703 31.0769 21.9273 31.0769 21.9956C31.0769 22.069 31.103 22.1259 31.155 22.1664C31.2071 22.2069 31.2758 22.2272 31.361 22.2272Z" fill="url(#paint9_linear)"/>
<path d="M33.4607 22.5613C33.276 22.5613 33.1281 22.5132 33.0168 22.417C32.9055 22.3208 32.8499 22.15 32.8499 21.9045V21.0844H32.5481V20.6781H32.8499L32.9032 20.1731H33.3044V20.6781H33.7802V21.0844H33.3044V21.9083C33.3044 21.9994 33.3222 22.0627 33.3577 22.0981C33.3956 22.131 33.4595 22.1475 33.5494 22.1475H33.7696V22.5613H33.4607Z" fill="url(#paint10_linear)"/>
</g>
<g filter="url(#filter1_f)">
<path d="M17.3243 39.6552C17.1877 39.6552 17.0755 39.6335 16.988 39.5902C16.9004 39.5447 16.8353 39.4851 16.7926 39.4114C16.7499 39.3377 16.7285 39.2565 16.7285 39.1676C16.7285 39.0181 16.7862 38.8968 16.9015 38.8036C17.0168 38.7104 17.1898 38.6638 17.4204 38.6638H17.8241V38.6248C17.8241 38.5143 17.7931 38.433 17.7312 38.381C17.6692 38.329 17.5923 38.303 17.5005 38.303C17.4172 38.303 17.3446 38.3236 17.2827 38.3648C17.2208 38.4038 17.1823 38.4623 17.1674 38.5403H16.767C16.7776 38.4233 16.8161 38.3214 16.8823 38.2348C16.9506 38.1481 17.0382 38.082 17.1449 38.0365C17.2517 37.9888 17.3713 37.965 17.5037 37.965C17.7301 37.965 17.9084 38.0224 18.0387 38.1372C18.1689 38.2521 18.2341 38.4146 18.2341 38.6248V39.6162H17.8849L17.8465 39.3562C17.7995 39.4428 17.7333 39.5143 17.6479 39.5707C17.5646 39.627 17.4567 39.6552 17.3243 39.6552ZM17.4172 39.3301C17.5347 39.3301 17.6254 39.2911 17.6895 39.2131C17.7557 39.1351 17.7974 39.0387 17.8144 38.9238H17.4653C17.3564 38.9238 17.2784 38.9444 17.2314 38.9856C17.1845 39.0246 17.161 39.0734 17.161 39.1319C17.161 39.1947 17.1845 39.2435 17.2314 39.2781C17.2784 39.3128 17.3403 39.3301 17.4172 39.3301Z" fill="white"/>
<path d="M18.5357 38.472V38.238L18.9105 37.9682C18.9702 37.9227 19.0183 37.8772 19.0546 37.8317C19.0909 37.7862 19.1091 37.7342 19.1091 37.6757C19.1091 37.6302 19.0962 37.5955 19.0706 37.5717C19.0471 37.5478 19.0172 37.5359 18.9809 37.5359C18.8955 37.5359 18.8475 37.5868 18.8368 37.6887H18.5261C18.5325 37.5782 18.5762 37.4861 18.6574 37.4124C18.7407 37.3387 18.8581 37.3019 19.0098 37.3019C19.1528 37.3019 19.2607 37.3387 19.3333 37.4124C19.4059 37.4839 19.4422 37.5652 19.4422 37.6562C19.4422 37.7407 19.4134 37.8144 19.3557 37.8772C19.3002 37.94 19.2148 38.0061 19.0994 38.0755L18.8656 38.2218H19.439V38.472H18.5357Z" fill="white"/>
<path d="M19.7415 38.8491V38.5013H20.3437V37.939H20.6928V38.5013H21.2919V38.8491H20.6928V39.4114H20.3437V38.8491H19.7415Z" fill="white"/>
<path d="M22.6234 39.6552C22.5038 39.6552 22.3992 39.6324 22.3095 39.5869C22.2198 39.5414 22.1472 39.4775 22.0917 39.3952L22.0468 39.6162H21.6816V37.2759H22.0917V38.2348C22.1429 38.1632 22.2102 38.1004 22.2935 38.0462C22.3789 37.9921 22.4889 37.965 22.6234 37.965C22.7729 37.965 22.9064 38.0018 23.0238 38.0755C23.1413 38.1492 23.2342 38.2499 23.3025 38.3778C23.3709 38.5056 23.405 38.6508 23.405 38.8133C23.405 38.9759 23.3709 39.121 23.3025 39.2489C23.2342 39.3746 23.1413 39.4742 23.0238 39.5479C22.9064 39.6194 22.7729 39.6552 22.6234 39.6552ZM22.5369 39.2911C22.6672 39.2911 22.7751 39.2467 22.8605 39.1579C22.9459 39.069 22.9886 38.9542 22.9886 38.8133C22.9886 38.6725 22.9459 38.5565 22.8605 38.4655C22.7751 38.3745 22.6672 38.329 22.5369 38.329C22.4045 38.329 22.2956 38.3745 22.2102 38.4655C22.1269 38.5544 22.0853 38.6692 22.0853 38.8101C22.0853 38.9509 22.1269 39.0669 22.2102 39.1579C22.2956 39.2467 22.4045 39.2911 22.5369 39.2911Z" fill="white"/>
<path d="M23.6816 38.472V38.238L24.0564 37.9682C24.1162 37.9227 24.1643 37.8772 24.2006 37.8317C24.2369 37.7862 24.255 37.7342 24.255 37.6757C24.255 37.6302 24.2422 37.5955 24.2166 37.5717C24.1931 37.5478 24.1632 37.5359 24.1269 37.5359C24.0415 37.5359 23.9934 37.5868 23.9827 37.6887H23.672C23.6784 37.5782 23.7222 37.4861 23.8033 37.4124C23.8866 37.3387 24.0041 37.3019 24.1557 37.3019C24.2988 37.3019 24.4066 37.3387 24.4792 37.4124C24.5519 37.4839 24.5882 37.5652 24.5882 37.6562C24.5882 37.7407 24.5593 37.8144 24.5017 37.8772C24.4461 37.94 24.3607 38.0061 24.2454 38.0755L24.0116 38.2218H24.585V38.472H23.6816Z" fill="white"/>
<path d="M24.897 38.4948V38.1307H26.2552V38.4948H24.897ZM24.897 39.2164V38.8523H26.2552V39.2164H24.897Z" fill="white"/>
<path d="M26.6524 39.6162V37.2759H27.0625V38.251C27.1158 38.1622 27.1874 38.0928 27.2771 38.043C27.3689 37.991 27.4735 37.965 27.591 37.965C27.7875 37.965 27.9391 38.0278 28.0459 38.1535C28.1548 38.2792 28.2092 38.4634 28.2092 38.7061V39.6162H27.8024V38.7451C27.8024 38.6064 27.7747 38.5002 27.7191 38.4265C27.6657 38.3529 27.5803 38.316 27.4629 38.316C27.3475 38.316 27.2514 38.3572 27.1746 38.4395C27.0998 38.5219 27.0625 38.6367 27.0625 38.7841V39.6162H26.6524Z" fill="white"/>
<path d="M28.5116 38.472V38.238L28.8864 37.9682C28.9462 37.9227 28.9943 37.8772 29.0306 37.8317C29.0669 37.7862 29.085 37.7342 29.085 37.6757C29.085 37.6302 29.0722 37.5955 29.0466 37.5717C29.0231 37.5478 28.9932 37.5359 28.9569 37.5359C28.8715 37.5359 28.8234 37.5868 28.8127 37.6887H28.502C28.5084 37.5782 28.5522 37.4861 28.6334 37.4124C28.7166 37.3387 28.8341 37.3019 28.9857 37.3019C29.1288 37.3019 29.2366 37.3387 29.3093 37.4124C29.3819 37.4839 29.4182 37.5652 29.4182 37.6562C29.4182 37.7407 29.3893 37.8144 29.3317 37.8772C29.2762 37.94 29.1907 38.0061 29.0754 38.0755L28.8416 38.2218H29.415V38.472H28.5116Z" fill="white"/>
</g>
<path d="M0 14.9761C0 10.5578 3.58172 6.97607 8 6.97607L24.5862 6.97607C24.0646 8.01921 23.7931 9.16945 23.7931 10.3357V23.6312V37.2999C23.7931 38.3475 24.0665 39.3769 24.5862 40.2864H8.00001C3.58173 40.2864 0 36.7047 0 32.2864L0 14.9761Z" fill="url(#paint11_linear)"/>
<g filter="url(#filter2_f)">
<path d="M2.84961 16.4021L3.51415 14.3349H3.88796L4.5525 16.4021H4.19946L4.05409 15.9237H3.34542L3.19746 16.4021H2.84961ZM3.43628 15.6284H3.96324L3.69846 14.769L3.43628 15.6284Z" fill="white"/>
<path d="M4.69572 16.4021V16.0979L5.35247 15.2504H4.70351V14.9374H5.73147V15.2415L5.06433 16.089H5.74445V16.4021H4.69572Z" fill="white"/>
<path d="M6.60762 16.4375C6.48129 16.4375 6.36966 16.406 6.27275 16.343C6.17584 16.28 6.09969 16.1944 6.04431 16.0861C5.99067 15.9758 5.96384 15.8538 5.96384 15.7199C5.96384 15.6983 5.96384 15.6756 5.96384 15.652C5.96557 15.6284 5.9673 15.6038 5.96903 15.5782H6.94768C6.94076 15.464 6.90528 15.3744 6.84125 15.3094C6.77895 15.2445 6.7028 15.212 6.61281 15.212C6.54532 15.212 6.48821 15.2297 6.44148 15.2651C6.39649 15.2986 6.36274 15.3429 6.34024 15.398H6.00278C6.02701 15.3055 6.06681 15.2218 6.12219 15.147C6.1793 15.0702 6.24852 15.0102 6.32986 14.9669C6.41293 14.9236 6.50638 14.9019 6.61021 14.9019C6.74001 14.9019 6.85509 14.9334 6.95546 14.9964C7.05584 15.0594 7.13458 15.148 7.19169 15.2622C7.2488 15.3764 7.27735 15.5083 7.27735 15.6579C7.27735 15.8095 7.2488 15.9443 7.19169 16.0625C7.13631 16.1806 7.05843 16.2731 6.95806 16.3401C6.85769 16.405 6.74087 16.4375 6.60762 16.4375ZM6.60762 16.1304C6.68896 16.1304 6.76077 16.1048 6.82308 16.0536C6.88538 16.0005 6.92518 15.9207 6.94249 15.8144H6.30131C6.3065 15.9109 6.33765 15.9877 6.39476 16.0448C6.45187 16.1018 6.52282 16.1304 6.60762 16.1304Z" fill="white"/>
<path d="M7.57239 16.4021V14.9374H7.86832L7.89947 15.212C7.94619 15.1175 8.00936 15.0427 8.08897 14.9876C8.1703 14.9305 8.26549 14.9019 8.37451 14.9019V15.3006H8.28106C8.20838 15.3006 8.14348 15.3134 8.08637 15.339C8.02926 15.3646 7.98427 15.4089 7.95139 15.4719C7.92024 15.5349 7.90466 15.6225 7.90466 15.7347V16.4021H7.57239Z" fill="white"/>
<path d="M9.3648 16.4375C9.26789 16.4375 9.18309 16.4168 9.1104 16.3755C9.03772 16.3342 8.97888 16.2761 8.93388 16.2013L8.89754 16.4021H8.60161V14.2759H8.93388V15.147C8.97542 15.0821 9.02993 15.025 9.09742 14.9758C9.16665 14.9265 9.25577 14.9019 9.3648 14.9019C9.48594 14.9019 9.5941 14.9354 9.68928 15.0023C9.78446 15.0693 9.85974 15.1608 9.91512 15.277C9.9705 15.3931 9.99819 15.525 9.99819 15.6727C9.99819 15.8203 9.9705 15.9522 9.91512 16.0684C9.85974 16.1826 9.78446 16.2731 9.68928 16.3401C9.5941 16.405 9.48594 16.4375 9.3648 16.4375ZM9.29471 16.1068C9.40027 16.1068 9.48767 16.0664 9.55689 15.9857C9.62612 15.905 9.66073 15.8006 9.66073 15.6727C9.66073 15.5447 9.62612 15.4394 9.55689 15.3567C9.48767 15.274 9.40027 15.2327 9.29471 15.2327C9.18741 15.2327 9.09915 15.274 9.02993 15.3567C8.96244 15.4374 8.92869 15.5418 8.92869 15.6697C8.92869 15.7977 8.96244 15.903 9.02993 15.9857C9.09915 16.0664 9.18741 16.1068 9.29471 16.1068Z" fill="white"/>
<path d="M10.7389 16.4375C10.6281 16.4375 10.5373 16.4178 10.4663 16.3784C10.3954 16.3371 10.3426 16.283 10.308 16.216C10.2734 16.1491 10.2561 16.0753 10.2561 15.9946C10.2561 15.8587 10.3028 15.7485 10.3963 15.6638C10.4897 15.5792 10.6299 15.5368 10.8168 15.5368H11.1439V15.5014C11.1439 15.401 11.1188 15.3272 11.0686 15.2799C11.0184 15.2327 10.9561 15.209 10.8817 15.209C10.8142 15.209 10.7553 15.2277 10.7052 15.2651C10.655 15.3006 10.6238 15.3537 10.6117 15.4246H10.2872C10.2959 15.3183 10.327 15.2258 10.3807 15.147C10.4361 15.0683 10.507 15.0082 10.5935 14.9669C10.6801 14.9236 10.777 14.9019 10.8843 14.9019C11.0677 14.9019 11.2122 14.9541 11.3178 15.0584C11.4233 15.1628 11.4761 15.3104 11.4761 15.5014V16.4021H11.1932L11.162 16.1658C11.124 16.2446 11.0703 16.3095 11.0011 16.3607C10.9336 16.4119 10.8462 16.4375 10.7389 16.4375ZM10.8142 16.1422C10.9094 16.1422 10.9829 16.1068 11.0348 16.0359C11.0885 15.965 11.1222 15.8774 11.1361 15.7731H10.8531C10.7649 15.7731 10.7017 15.7918 10.6636 15.8292C10.6256 15.8646 10.6065 15.9089 10.6065 15.9621C10.6065 16.0192 10.6256 16.0635 10.6636 16.095C10.7017 16.1265 10.7519 16.1422 10.8142 16.1422Z" fill="white"/>
<path d="M11.9111 17.0517L12.2096 16.3046H12.1317L11.6307 14.9374H11.9915L12.3524 15.968L12.7288 14.9374H13.0818L12.2641 17.0517H11.9111Z" fill="white"/>
<path d="M13.8183 16.4375C13.6868 16.4375 13.5708 16.405 13.4704 16.3401C13.3701 16.2751 13.2904 16.1845 13.2316 16.0684C13.1745 15.9522 13.1459 15.8193 13.1459 15.6697C13.1459 15.5201 13.1745 15.3872 13.2316 15.2711C13.2904 15.1549 13.3701 15.0643 13.4704 14.9994C13.5708 14.9344 13.6868 14.9019 13.8183 14.9019C13.9827 14.9019 14.1211 14.9511 14.2336 15.0496C14.3461 15.146 14.4179 15.2799 14.4491 15.4512H14.0986C14.0813 15.3803 14.0467 15.3252 13.9948 15.2858C13.9446 15.2445 13.8849 15.2238 13.8157 15.2238C13.724 15.2238 13.6461 15.2632 13.5821 15.3419C13.518 15.4207 13.486 15.5299 13.486 15.6697C13.486 15.8095 13.518 15.9188 13.5821 15.9975C13.6461 16.0763 13.724 16.1156 13.8157 16.1156C13.8849 16.1156 13.9446 16.0959 13.9948 16.0566C14.0467 16.0172 14.0813 15.9611 14.0986 15.8882H14.4491C14.4179 16.0536 14.3461 16.1865 14.2336 16.2869C14.1211 16.3873 13.9827 16.4375 13.8183 16.4375Z" fill="white"/>
<path d="M15.1879 16.4375C15.0771 16.4375 14.9863 16.4178 14.9153 16.3784C14.8444 16.3371 14.7916 16.283 14.757 16.216C14.7224 16.1491 14.705 16.0753 14.705 15.9946C14.705 15.8587 14.7518 15.7485 14.8452 15.6638C14.9387 15.5792 15.0789 15.5368 15.2658 15.5368H15.5928V15.5014C15.5928 15.401 15.5677 15.3272 15.5176 15.2799C15.4674 15.2327 15.4051 15.209 15.3307 15.209C15.2632 15.209 15.2043 15.2277 15.1541 15.2651C15.1039 15.3006 15.0728 15.3537 15.0607 15.4246H14.7362C14.7449 15.3183 14.776 15.2258 14.8297 15.147C14.885 15.0683 14.956 15.0082 15.0425 14.9669C15.129 14.9236 15.226 14.9019 15.3333 14.9019C15.5167 14.9019 15.6612 14.9541 15.7668 15.0584C15.8723 15.1628 15.9251 15.3104 15.9251 15.5014V16.4021H15.6422L15.611 16.1658C15.5729 16.2446 15.5193 16.3095 15.4501 16.3607C15.3826 16.4119 15.2952 16.4375 15.1879 16.4375ZM15.2632 16.1422C15.3583 16.1422 15.4319 16.1068 15.4838 16.0359C15.5375 15.965 15.5712 15.8774 15.585 15.7731H15.3021C15.2138 15.7731 15.1507 15.7918 15.1126 15.8292C15.0745 15.8646 15.0555 15.9089 15.0555 15.9621C15.0555 16.0192 15.0745 16.0635 15.1126 16.095C15.1507 16.1265 15.2009 16.1422 15.2632 16.1422Z" fill="white"/>
<path d="M16.2422 16.4021V14.9374H16.5355L16.5615 15.1854C16.6013 15.0988 16.6584 15.0299 16.7328 14.9787C16.809 14.9275 16.8981 14.9019 17.0002 14.9019C17.1594 14.9019 17.2831 14.959 17.3714 15.0732C17.4597 15.1874 17.5038 15.3547 17.5038 15.5752V16.4021H17.1715V15.6107C17.1715 15.4847 17.149 15.3882 17.104 15.3213C17.059 15.2543 16.9889 15.2209 16.8938 15.2209C16.8003 15.2209 16.7233 15.2583 16.6627 15.3331C16.6039 15.4079 16.5745 15.5122 16.5745 15.6461V16.4021H16.2422Z" fill="white"/>
<path d="M19.0319 16.4375C18.9108 16.4375 18.8026 16.404 18.7074 16.3371C18.6123 16.2702 18.537 16.1786 18.4816 16.0625C18.4262 15.9463 18.3985 15.8144 18.3985 15.6668C18.3985 15.5191 18.4262 15.3882 18.4816 15.274C18.537 15.1579 18.6123 15.0673 18.7074 15.0023C18.8026 14.9354 18.9108 14.9019 19.0319 14.9019C19.1288 14.9019 19.2136 14.9226 19.2863 14.9639C19.359 15.0053 19.4178 15.0634 19.4628 15.1382V14.2759H19.7951V16.4021H19.4992L19.4628 16.1924C19.4213 16.2574 19.3659 16.3145 19.2967 16.3637C19.2292 16.4129 19.1409 16.4375 19.0319 16.4375ZM19.102 16.1068C19.2093 16.1068 19.2967 16.0664 19.3642 15.9857C19.4334 15.903 19.468 15.7977 19.468 15.6697C19.468 15.5418 19.4334 15.4374 19.3642 15.3567C19.2967 15.274 19.2093 15.2327 19.102 15.2327C18.9964 15.2327 18.909 15.273 18.8398 15.3537C18.7706 15.4345 18.736 15.5388 18.736 15.6668C18.736 15.7947 18.7706 15.9001 18.8398 15.9827C18.909 16.0654 18.9964 16.1068 19.102 16.1068Z" fill="white"/>
<path d="M20.3126 14.71C20.252 14.71 20.2018 14.6893 20.162 14.648C20.1239 14.6066 20.1049 14.5544 20.1049 14.4915C20.1049 14.4285 20.1239 14.3773 20.162 14.3379C20.2018 14.2966 20.252 14.2759 20.3126 14.2759C20.3731 14.2759 20.4225 14.2966 20.4605 14.3379C20.5003 14.3773 20.5202 14.4285 20.5202 14.4915C20.5202 14.5544 20.5003 14.6066 20.4605 14.648C20.4225 14.6893 20.3731 14.71 20.3126 14.71ZM20.1464 16.4021V14.9374H20.4787V16.4021H20.1464Z" fill="white"/>
<path d="M20.8255 16.4021V14.2759H21.1578V16.4021H20.8255Z" fill="white"/>
<path d="M21.6764 14.71C21.6159 14.71 21.5657 14.6893 21.5259 14.648C21.4878 14.6066 21.4688 14.5544 21.4688 14.4915C21.4688 14.4285 21.4878 14.3773 21.5259 14.3379C21.5657 14.2966 21.6159 14.2759 21.6764 14.2759C21.737 14.2759 21.7863 14.2966 21.8244 14.3379C21.8642 14.3773 21.8841 14.4285 21.8841 14.4915C21.8841 14.5544 21.8642 14.6066 21.8244 14.648C21.7863 14.6893 21.737 14.71 21.6764 14.71ZM21.5103 16.4021V14.9374H21.8426V16.4021H21.5103Z" fill="white"/>
</g>
<g filter="url(#filter3_f)">
<path d="M4.10059 35.2933C3.63128 35.2933 3.2463 35.2247 2.94564 35.0874C2.64499 34.9433 2.42134 34.7546 2.27468 34.5213C2.12802 34.288 2.05469 34.0307 2.05469 33.7493C2.05469 33.2758 2.25268 32.8916 2.64866 32.5965C3.04464 32.3014 3.63861 32.1539 4.43057 32.1539H5.8165V32.0304C5.8165 31.6804 5.71018 31.4231 5.49752 31.2584C5.28486 31.0937 5.02088 31.0114 4.70556 31.0114C4.41957 31.0114 4.17025 31.0766 3.95759 31.2069C3.74494 31.3305 3.61294 31.5157 3.56161 31.7628H2.18668C2.22335 31.3922 2.35534 31.0697 2.58266 30.7952C2.81732 30.5207 3.11797 30.3115 3.48462 30.1674C3.85127 30.0164 4.26191 29.9409 4.71656 29.9409C5.49385 29.9409 6.10616 30.1228 6.55347 30.4864C7.00078 30.8501 7.22444 31.3648 7.22444 32.0304V35.1698H6.02549L5.8935 34.3463C5.73217 34.6208 5.50485 34.8472 5.21153 35.0257C4.92555 35.2041 4.55523 35.2933 4.10059 35.2933ZM4.41957 34.264C4.82289 34.264 5.13454 34.1405 5.35453 33.8934C5.58185 33.6464 5.72484 33.341 5.78351 32.9773H4.58456C4.21058 32.9773 3.94293 33.0425 3.7816 33.1729C3.62028 33.2964 3.53961 33.4508 3.53961 33.6361C3.53961 33.8351 3.62028 33.9895 3.7816 34.0993C3.94293 34.2091 4.15559 34.264 4.41957 34.264Z" fill="white"/>
<path d="M11.8018 35.2933C11.3912 35.2933 11.0319 35.2212 10.7239 35.0771C10.4159 34.933 10.1666 34.7306 9.97593 34.4698L9.82194 35.1698H8.568V27.7588H9.97593V30.7952C10.1519 30.5688 10.3829 30.3698 10.6689 30.1982C10.9622 30.0267 11.3399 29.9409 11.8018 29.9409C12.3152 29.9409 12.7735 30.0576 13.1768 30.2909C13.5801 30.5242 13.8991 30.8433 14.1337 31.2481C14.3684 31.653 14.4857 32.1127 14.4857 32.6274C14.4857 33.142 14.3684 33.6018 14.1337 34.0066C13.8991 34.4046 13.5801 34.7203 13.1768 34.9536C12.7735 35.18 12.3152 35.2933 11.8018 35.2933ZM11.5049 34.1405C11.9522 34.1405 12.3225 33.9998 12.6158 33.7184C12.9091 33.4371 13.0558 33.0734 13.0558 32.6274C13.0558 32.1814 12.9091 31.8142 12.6158 31.526C12.3225 31.2378 11.9522 31.0937 11.5049 31.0937C11.0502 31.0937 10.6762 31.2378 10.3829 31.526C10.0969 31.8074 9.95393 32.1711 9.95393 32.6171C9.95393 33.0631 10.0969 33.4302 10.3829 33.7184C10.6762 33.9998 11.0502 34.1405 11.5049 34.1405Z" fill="white"/>
<path d="M18.4163 35.2933C17.859 35.2933 17.3677 35.18 16.9424 34.9536C16.5171 34.7272 16.1797 34.4115 15.9304 34.0066C15.6884 33.6018 15.5674 33.1386 15.5674 32.6171C15.5674 32.0956 15.6884 31.6324 15.9304 31.2275C16.1797 30.8227 16.5171 30.507 16.9424 30.2806C17.3677 30.0541 17.859 29.9409 18.4163 29.9409C19.1129 29.9409 19.6996 30.1125 20.1762 30.4556C20.6529 30.7918 20.9572 31.2584 21.0892 31.8554H19.6042C19.5309 31.6084 19.3843 31.4162 19.1643 31.279C18.9516 31.1349 18.6986 31.0628 18.4053 31.0628C18.0167 31.0628 17.6867 31.2001 17.4153 31.4746C17.144 31.749 17.0084 32.1299 17.0084 32.6171C17.0084 33.1043 17.144 33.4851 17.4153 33.7596C17.6867 34.0341 18.0167 34.1713 18.4053 34.1713C18.6986 34.1713 18.9516 34.1027 19.1643 33.9655C19.3843 33.8282 19.5309 33.6327 19.6042 33.3788H21.0892C20.9572 33.9552 20.6529 34.4184 20.1762 34.7683C19.6996 35.1183 19.1129 35.2933 18.4163 35.2933Z" fill="white"/>
</g>
<path d="M8.40234 8C8.40234 3.58172 11.9841 0 16.4023 0L32.9885 0C32.467 1.04314 32.1954 2.19338 32.1954 3.35964V16.6552V30.3239C32.1954 31.3714 32.4688 32.4008 32.9885 33.3103H16.4024C11.9841 33.3103 8.40234 29.7286 8.40234 25.3103V8Z" fill="url(#paint12_linear)"/>
<g filter="url(#filter4_f)">
<path d="M11.2804 8.43038V5.51963H10.3867V5.01743H12.7391V5.51963H11.8411V8.43038H11.2804Z" fill="white"/>
<path d="M13.5183 8.48889C13.3314 8.48889 13.178 8.45638 13.0583 8.39137C12.9386 8.32312 12.8495 8.23373 12.7911 8.12321C12.7327 8.0127 12.7035 7.89081 12.7035 7.75754C12.7035 7.53326 12.7823 7.35124 12.94 7.21147C13.0977 7.0717 13.3343 7.00182 13.6497 7.00182H14.2016V6.94331C14.2016 6.77754 14.1593 6.65565 14.0746 6.57764C13.9899 6.49963 13.8848 6.46062 13.7592 6.46062C13.6453 6.46062 13.546 6.4915 13.4613 6.55326C13.3766 6.61177 13.3241 6.69953 13.3036 6.81654H12.756C12.7706 6.64102 12.8232 6.48825 12.9137 6.35823C13.0072 6.22822 13.1269 6.12908 13.2729 6.06082C13.419 5.98931 13.5825 5.95356 13.7636 5.95356C14.0731 5.95356 14.317 6.03969 14.4951 6.21197C14.6733 6.38424 14.7624 6.62802 14.7624 6.94331V8.43038H14.2849L14.2323 8.04033C14.1681 8.17035 14.0775 8.27761 13.9607 8.36212C13.8468 8.44663 13.6993 8.48889 13.5183 8.48889ZM13.6453 8.00132C13.8059 8.00132 13.93 7.94282 14.0177 7.8258C14.1082 7.70879 14.1651 7.56414 14.1885 7.39187H13.711C13.5621 7.39187 13.4555 7.42275 13.3912 7.48451C13.327 7.54301 13.2948 7.61615 13.2948 7.70391C13.2948 7.79817 13.327 7.87131 13.3912 7.92331C13.4555 7.97532 13.5402 8.00132 13.6453 8.00132Z" fill="white"/>
<path d="M15.2974 8.43038V6.01206H15.7968L15.8494 6.4655C15.9283 6.30948 16.0349 6.18596 16.1692 6.09495C16.3065 6.00069 16.4671 5.95356 16.6511 5.95356V6.61177H16.4934C16.3707 6.61177 16.2612 6.6329 16.1648 6.67515C16.0684 6.71741 15.9925 6.79054 15.937 6.89455C15.8845 6.99857 15.8582 7.14321 15.8582 7.32849V8.43038H15.2974Z" fill="white"/>
<path d="M17.3366 5.63664C17.2344 5.63664 17.1497 5.60251 17.0825 5.53425C17.0182 5.46599 16.9861 5.37986 16.9861 5.27584C16.9861 5.17183 17.0182 5.08732 17.0825 5.02231C17.1497 4.95405 17.2344 4.91992 17.3366 4.91992C17.4388 4.91992 17.522 4.95405 17.5863 5.02231C17.6534 5.08732 17.687 5.17183 17.687 5.27584C17.687 5.37986 17.6534 5.46599 17.5863 5.53425C17.522 5.60251 17.4388 5.63664 17.3366 5.63664ZM17.0562 8.43038V6.01206H17.6169V8.43038H17.0562Z" fill="white"/>
<path d="M17.9963 8.43038L18.7848 7.22122L17.9963 6.01206H18.5964L19.1484 6.87018L19.696 6.01206H20.3005L19.5076 7.22122L20.3005 8.43038H19.696L19.1484 7.57227L18.5964 8.43038H17.9963Z" fill="white"/>
</g>
<g filter="url(#filter5_f)">
<path d="M10.701 26.301V24.7838L10.3867 24.8577V24.5893L10.8486 24.3839H11.0645V26.301H10.701Z" fill="white"/>
<path d="M12.0887 26.3338C11.9557 26.3338 11.8437 26.3083 11.7526 26.2572C11.6615 26.2042 11.5904 26.1357 11.5394 26.0518C11.4883 25.9678 11.4583 25.8774 11.4492 25.7806H11.7744C11.789 25.8646 11.8236 25.9294 11.8783 25.9751C11.9348 26.0207 12.0058 26.0435 12.0915 26.0435C12.2136 26.0435 12.3119 25.9879 12.3867 25.8765C12.4614 25.7633 12.5014 25.5917 12.5069 25.3616C12.4632 25.4365 12.3967 25.4986 12.3074 25.5478C12.2199 25.5971 12.1234 25.6218 12.0177 25.6218C11.912 25.6218 11.8127 25.5962 11.7198 25.5451C11.6268 25.494 11.5512 25.4219 11.4929 25.3288C11.4346 25.2356 11.4054 25.1261 11.4054 25.0001C11.4054 24.8851 11.4337 24.7783 11.4902 24.6797C11.5467 24.5811 11.625 24.5017 11.7252 24.4414C11.8254 24.3812 11.943 24.3511 12.0778 24.3511C12.2217 24.3511 12.3429 24.3775 12.4413 24.4305C12.5397 24.4834 12.6181 24.5546 12.6764 24.6441C12.7365 24.7336 12.7793 24.8331 12.8048 24.9426C12.8322 25.0522 12.8458 25.1644 12.8458 25.2795C12.8458 25.4931 12.8158 25.6793 12.7556 25.8381C12.6973 25.9952 12.6108 26.1175 12.496 26.2051C12.383 26.2909 12.2473 26.3338 12.0887 26.3338ZM12.0997 25.326C12.1671 25.326 12.2281 25.3114 12.2828 25.2822C12.3375 25.2512 12.3803 25.211 12.4112 25.1617C12.4422 25.1106 12.4577 25.054 12.4577 24.9919C12.4577 24.8933 12.4231 24.8121 12.3539 24.7482C12.2864 24.6843 12.2008 24.6523 12.0969 24.6523C11.9949 24.6523 11.9102 24.6843 11.8428 24.7482C11.7753 24.8102 11.7416 24.8897 11.7416 24.9864C11.7416 25.0887 11.7753 25.1708 11.8428 25.2329C11.9102 25.295 11.9958 25.326 12.0997 25.326Z" fill="white"/>
<path d="M13.3515 26.301V24.7838L13.0371 24.8577V24.5893L13.4991 24.3839H13.715V26.301H13.3515Z" fill="white"/>
<path d="M14.761 26.3338C14.6298 26.3338 14.5114 26.311 14.4057 26.2654C14.3 26.2179 14.2153 26.1513 14.1515 26.0654C14.0896 25.9796 14.0586 25.8801 14.0586 25.7669C14.0586 25.6501 14.0887 25.5478 14.1488 25.4602C14.2107 25.3726 14.2918 25.3096 14.392 25.2712C14.3046 25.2329 14.2353 25.1781 14.1843 25.1069C14.1333 25.0339 14.1078 24.9527 14.1078 24.8632C14.1078 24.7719 14.1324 24.6879 14.1816 24.6112C14.2308 24.5327 14.3037 24.4697 14.4002 24.4223C14.4986 24.3748 14.6189 24.3511 14.761 24.3511C14.9032 24.3511 15.0225 24.3748 15.1191 24.4223C15.2156 24.4697 15.2885 24.5327 15.3377 24.6112C15.3869 24.6879 15.4115 24.7719 15.4115 24.8632C15.4115 24.9508 15.3851 25.0321 15.3323 25.1069C15.2812 25.18 15.2129 25.2347 15.1273 25.2712C15.2293 25.3096 15.3104 25.3726 15.3705 25.4602C15.4307 25.5478 15.4607 25.6501 15.4607 25.7669C15.4607 25.8801 15.4297 25.9796 15.3678 26.0654C15.3058 26.1513 15.2211 26.2179 15.1136 26.2654C15.0079 26.311 14.8904 26.3338 14.761 26.3338ZM14.761 25.1672C14.8558 25.1672 14.9305 25.1425 14.9851 25.0932C15.0398 25.0439 15.0671 24.981 15.0671 24.9043C15.0671 24.8203 15.0398 24.7546 14.9851 24.7071C14.9323 24.6596 14.8576 24.6359 14.761 24.6359C14.6626 24.6359 14.587 24.6596 14.5342 24.7071C14.4813 24.7546 14.4549 24.8203 14.4549 24.9043C14.4549 24.9828 14.4813 25.0467 14.5342 25.096C14.5888 25.1434 14.6645 25.1672 14.761 25.1672ZM14.761 26.0408C14.8776 26.0408 14.966 26.0125 15.0261 25.9559C15.0863 25.8975 15.1163 25.8245 15.1163 25.7368C15.1163 25.64 15.0845 25.5643 15.0207 25.5095C14.9587 25.4547 14.8722 25.4274 14.761 25.4274C14.6499 25.4274 14.5615 25.4547 14.4959 25.5095C14.4321 25.5643 14.4002 25.64 14.4002 25.7368C14.4002 25.8245 14.4303 25.8975 14.4904 25.9559C14.5524 26.0125 14.6426 26.0408 14.761 26.0408Z" fill="white"/>
<path d="M15.7666 25.6547V25.3616H16.9118V25.6547H15.7666Z" fill="white"/>
<path d="M17.4539 26.301V24.7838L17.1396 24.8577V24.5893L17.6015 24.3839H17.8174V26.301H17.4539Z" fill="white"/>
<path d="M18.8416 26.3338C18.7086 26.3338 18.5965 26.3083 18.5054 26.2572C18.4143 26.2042 18.3432 26.1357 18.2922 26.0518C18.2412 25.9678 18.2111 25.8774 18.202 25.7806H18.5273C18.5418 25.8646 18.5765 25.9294 18.6311 25.9751C18.6876 26.0207 18.7587 26.0435 18.8443 26.0435C18.9664 26.0435 19.0648 25.9879 19.1395 25.8765C19.2142 25.7633 19.2543 25.5917 19.2598 25.3616C19.216 25.4365 19.1495 25.4986 19.0602 25.5478C18.9728 25.5971 18.8762 25.6218 18.7705 25.6218C18.6648 25.6218 18.5655 25.5962 18.4726 25.5451C18.3797 25.494 18.3041 25.4219 18.2458 25.3288C18.1874 25.2356 18.1583 25.1261 18.1583 25.0001C18.1583 24.8851 18.1865 24.7783 18.243 24.6797C18.2995 24.5811 18.3779 24.5017 18.4781 24.4414C18.5783 24.3812 18.6958 24.3511 18.8307 24.3511C18.9746 24.3511 19.0958 24.3775 19.1942 24.4305C19.2926 24.4834 19.3709 24.5546 19.4292 24.6441C19.4893 24.7336 19.5322 24.8331 19.5577 24.9426C19.585 25.0522 19.5987 25.1644 19.5987 25.2795C19.5987 25.4931 19.5686 25.6793 19.5085 25.8381C19.4502 25.9952 19.3636 26.1175 19.2488 26.2051C19.1359 26.2909 19.0001 26.3338 18.8416 26.3338ZM18.8525 25.326C18.9199 25.326 18.981 25.3114 19.0356 25.2822C19.0903 25.2512 19.1331 25.211 19.1641 25.1617C19.1951 25.1106 19.2106 25.054 19.2106 24.9919C19.2106 24.8933 19.1759 24.8121 19.1067 24.7482C19.0393 24.6843 18.9536 24.6523 18.8498 24.6523C18.7477 24.6523 18.663 24.6843 18.5956 24.7482C18.5282 24.8102 18.4945 24.8897 18.4945 24.9864C18.4945 25.0887 18.5282 25.1708 18.5956 25.2329C18.663 25.295 18.7487 25.326 18.8525 25.326Z" fill="white"/>
<path d="M19.8501 26.301V26.0463C19.9667 25.9495 20.0797 25.8537 20.189 25.7587C20.3002 25.6638 20.3986 25.5698 20.4842 25.4766C20.5717 25.3835 20.6409 25.2932 20.6919 25.2055C20.7448 25.1161 20.7712 25.0293 20.7712 24.9454C20.7712 24.8668 20.7493 24.7975 20.7056 24.7372C20.6637 24.677 20.5935 24.6468 20.4952 24.6468C20.3949 24.6468 20.3193 24.6797 20.2683 24.7454C20.2173 24.8112 20.1918 24.8906 20.1918 24.9837H19.8529C19.8565 24.8431 19.8875 24.7263 19.9458 24.6332C20.0041 24.5382 20.0815 24.4679 20.1781 24.4223C20.2747 24.3748 20.3831 24.3511 20.5034 24.3511C20.6983 24.3511 20.8496 24.4049 20.9571 24.5127C21.0664 24.6185 21.121 24.7564 21.121 24.9262C21.121 25.0321 21.0964 25.1352 21.0473 25.2356C20.9999 25.3361 20.937 25.4328 20.8587 25.5259C20.7803 25.6191 20.6956 25.7067 20.6045 25.7888C20.5134 25.8692 20.425 25.944 20.3394 26.0134H21.1675V26.301H19.8501Z" fill="white"/>
<path d="M22.2291 26.3338C22.0523 26.3338 21.9011 26.2928 21.7754 26.2106C21.6497 26.1266 21.5522 26.0107 21.4829 25.8628C21.4155 25.7131 21.3818 25.5396 21.3818 25.3425C21.3818 25.1471 21.4155 24.9746 21.4829 24.8249C21.5522 24.6751 21.6497 24.5592 21.7754 24.4771C21.9011 24.3931 22.0523 24.3511 22.2291 24.3511C22.4058 24.3511 22.5571 24.3931 22.6828 24.4771C22.8085 24.5592 22.9051 24.6751 22.9725 24.8249C23.0418 24.9746 23.0764 25.1471 23.0764 25.3425C23.0764 25.5396 23.0418 25.7131 22.9725 25.8628C22.9051 26.0107 22.8085 26.1266 22.6828 26.2106C22.5571 26.2928 22.4058 26.3338 22.2291 26.3338ZM22.2291 26.0189C22.373 26.0189 22.4906 25.9586 22.5817 25.8381C22.6728 25.7176 22.7183 25.5524 22.7183 25.3425C22.7183 25.1325 22.6728 24.9673 22.5817 24.8468C22.4906 24.7263 22.373 24.666 22.2291 24.666C22.0833 24.666 21.9649 24.7263 21.8738 24.8468C21.7845 24.9673 21.7399 25.1325 21.7399 25.3425C21.7399 25.5524 21.7845 25.7176 21.8738 25.8381C21.9649 25.9586 22.0833 26.0189 22.2291 26.0189Z" fill="white"/>
</g>
<defs>
<filter id="filter0_f" x="15.7285" y="18.8276" width="19.0517" height="5.56897" filterUnits="userSpaceOnUse" color-interpolation-filters="sRGB">
<feFlood flood-opacity="0" result="BackgroundImageFix"/>
<feBlend mode="normal" in="SourceGraphic" in2="BackgroundImageFix" result="shape"/>
<feGaussianBlur stdDeviation="0.5" result="effect1_foregroundBlur"/>
</filter>
<filter id="filter1_f" x="15.7285" y="36.2759" width="14.6897" height="4.37931" filterUnits="userSpaceOnUse" color-interpolation-filters="sRGB">
<feFlood flood-opacity="0" result="BackgroundImageFix"/>
<feBlend mode="normal" in="SourceGraphic" in2="BackgroundImageFix" result="shape"/>
<feGaussianBlur stdDeviation="0.5" result="effect1_foregroundBlur"/>
</filter>
<filter id="filter2_f" x="1.84961" y="13.2759" width="21.0345" height="4.77586" filterUnits="userSpaceOnUse" color-interpolation-filters="sRGB">
<feFlood flood-opacity="0" result="BackgroundImageFix"/>
<feBlend mode="normal" in="SourceGraphic" in2="BackgroundImageFix" result="shape"/>
<feGaussianBlur stdDeviation="0.5" result="effect1_foregroundBlur"/>
</filter>
<filter id="filter3_f" x="1.05469" y="26.7588" width="21.0345" height="9.53448" filterUnits="userSpaceOnUse" color-interpolation-filters="sRGB">
<feFlood flood-opacity="0" result="BackgroundImageFix"/>
<feBlend mode="normal" in="SourceGraphic" in2="BackgroundImageFix" result="shape"/>
<feGaussianBlur stdDeviation="0.5" result="effect1_foregroundBlur"/>
</filter>
<filter id="filter4_f" x="9.38672" y="3.91992" width="11.9138" height="5.56897" filterUnits="userSpaceOnUse" color-interpolation-filters="sRGB">
<feFlood flood-opacity="0" result="BackgroundImageFix"/>
<feBlend mode="normal" in="SourceGraphic" in2="BackgroundImageFix" result="shape"/>
<feGaussianBlur stdDeviation="0.5" result="effect1_foregroundBlur"/>
</filter>
<filter id="filter5_f" x="9.38672" y="23.3511" width="14.6897" height="3.98276" filterUnits="userSpaceOnUse" color-interpolation-filters="sRGB">
<feFlood flood-opacity="0" result="BackgroundImageFix"/>
<feBlend mode="normal" in="SourceGraphic" in2="BackgroundImageFix" result="shape"/>
<feGaussianBlur stdDeviation="0.5" result="effect1_foregroundBlur"/>
</filter>
<linearGradient id="paint0_linear" x1="25.4533" y1="12.6895" x2="25.4533" y2="45.9998" gradientUnits="userSpaceOnUse">
<stop stop-color="#9A81FF"/>
<stop offset="1" stop-color="#F3DFFF"/>
</linearGradient>
<linearGradient id="paint1_linear" x1="25.2544" y1="19.8276" x2="25.2544" y2="23.3966" gradientUnits="userSpaceOnUse">
<stop stop-color="white"/>
<stop offset="1" stop-color="#F3DFFF"/>
</linearGradient>
<linearGradient id="paint2_linear" x1="25.2544" y1="19.8276" x2="25.2544" y2="23.3966" gradientUnits="userSpaceOnUse">
<stop stop-color="white"/>
<stop offset="1" stop-color="#F3DFFF"/>
</linearGradient>
<linearGradient id="paint3_linear" x1="25.2544" y1="19.8276" x2="25.2544" y2="23.3966" gradientUnits="userSpaceOnUse">
<stop stop-color="white"/>
<stop offset="1" stop-color="#F3DFFF"/>
</linearGradient>
<linearGradient id="paint4_linear" x1="25.2544" y1="19.8276" x2="25.2544" y2="23.3966" gradientUnits="userSpaceOnUse">
<stop stop-color="white"/>
<stop offset="1" stop-color="#F3DFFF"/>
</linearGradient>
<linearGradient id="paint5_linear" x1="25.2544" y1="19.8276" x2="25.2544" y2="23.3966" gradientUnits="userSpaceOnUse">
<stop stop-color="white"/>
<stop offset="1" stop-color="#F3DFFF"/>
</linearGradient>
<linearGradient id="paint6_linear" x1="25.2544" y1="19.8276" x2="25.2544" y2="23.3966" gradientUnits="userSpaceOnUse">
<stop stop-color="white"/>
<stop offset="1" stop-color="#F3DFFF"/>
</linearGradient>
<linearGradient id="paint7_linear" x1="25.2544" y1="19.8276" x2="25.2544" y2="23.3966" gradientUnits="userSpaceOnUse">
<stop stop-color="white"/>
<stop offset="1" stop-color="#F3DFFF"/>
</linearGradient>
<linearGradient id="paint8_linear" x1="25.2544" y1="19.8276" x2="25.2544" y2="23.3966" gradientUnits="userSpaceOnUse">
<stop stop-color="white"/>
<stop offset="1" stop-color="#F3DFFF"/>
</linearGradient>
<linearGradient id="paint9_linear" x1="25.2544" y1="19.8276" x2="25.2544" y2="23.3966" gradientUnits="userSpaceOnUse">
<stop stop-color="white"/>
<stop offset="1" stop-color="#F3DFFF"/>
</linearGradient>
<linearGradient id="paint10_linear" x1="25.2544" y1="19.8276" x2="25.2544" y2="23.3966" gradientUnits="userSpaceOnUse">
<stop stop-color="white"/>
<stop offset="1" stop-color="#F3DFFF"/>
</linearGradient>
<linearGradient id="paint11_linear" x1="12.2931" y1="6.97607" x2="12.2931" y2="40.2864" gradientUnits="userSpaceOnUse">
<stop stop-color="#6B99FF"/>
<stop offset="1" stop-color="#B4CBFF"/>
</linearGradient>
<linearGradient id="paint12_linear" x1="20.6954" y1="0" x2="20.6954" y2="33.3103" gradientUnits="userSpaceOnUse">
<stop stop-color="#40ECAE"/>
<stop offset="1" stop-color="#D6FFF0"/>
</linearGradient>
</defs>
</svg>
