<svg width="32" height="32" viewBox="0 0 32 32" fill="none" xmlns="http://www.w3.org/2000/svg">
<circle cx="16.282" cy="15.96" r="13.8523" fill="url(#paint0_linear)"/>
<path fill-rule="evenodd" clip-rule="evenodd" d="M27.8727 16.1272C27.943 9.57011 22.6844 4.19753 16.1273 4.12724C9.57015 4.05695 4.19756 9.31557 4.12727 15.8727C4.05698 22.4298 9.3156 27.8024 15.8727 27.8727C22.4299 27.943 27.8024 22.6844 27.8727 16.1272ZM16.1697 0.169661C24.9125 0.263381 31.924 7.42682 31.8303 16.1697C31.7366 24.9125 24.5731 31.924 15.8303 31.8303C7.08747 31.7365 0.0759761 24.5731 0.169695 15.8303C0.263415 7.08744 7.42686 0.075942 16.1697 0.169661Z" fill="url(#paint1_linear)"/>
<path d="M12 22.6668V20.9253C12.8262 20.2636 13.6266 19.6082 14.4011 18.959C15.1886 18.3098 15.8857 17.6668 16.4924 17.0301C17.112 16.3934 17.6026 15.7754 17.964 15.1762C18.3384 14.5645 18.5256 13.9714 18.5256 13.3972C18.5256 12.8603 18.3707 12.3859 18.0609 11.9739C17.7639 11.562 17.2669 11.356 16.5698 11.356C15.8598 11.356 15.3241 11.5807 14.9627 12.0301C14.6012 12.4796 14.4205 13.0226 14.4205 13.6593H12.0194C12.0452 12.698 12.2646 11.899 12.6777 11.2623C13.0908 10.6131 13.6395 10.1325 14.3237 9.82039C15.0078 9.49579 15.7759 9.3335 16.6279 9.3335C18.0092 9.3335 19.0807 9.70179 19.8423 10.4384C20.6169 11.1625 21.0041 12.105 21.0041 13.2661C21.0041 13.9902 20.8299 14.6955 20.4813 15.3822C20.1457 16.0688 19.7003 16.7305 19.1452 17.3672C18.5901 18.0039 17.9899 18.6032 17.3444 19.165C16.6989 19.7143 16.0728 20.2261 15.4661 20.7005H21.3333V22.6668H12Z" fill="white"/>
<defs>
<linearGradient id="paint0_linear" x1="2.1469" y1="23.2562" x2="27.5428" y2="16.0002" gradientUnits="userSpaceOnUse">
<stop stop-color="#9A81FF"/>
<stop offset="1" stop-color="#F3DFFF"/>
</linearGradient>
<linearGradient id="paint1_linear" x1="31.8303" y1="16.1697" x2="0.169695" y2="15.8303" gradientUnits="userSpaceOnUse">
<stop stop-color="#9A81FF"/>
<stop offset="1" stop-color="#F3DFFF"/>
</linearGradient>
</defs>
</svg>
