<svg width="32" height="32" viewBox="0 0 32 32" fill="none" xmlns="http://www.w3.org/2000/svg">
<circle cx="16" cy="16" r="14" fill="url(#paint0_linear)"/>
<path fill-rule="evenodd" clip-rule="evenodd" d="M16 4C9.37258 4 4 9.37258 4 16C4 22.6274 9.37258 28 16 28C22.6274 28 28 22.6274 28 16C28 9.37258 22.6274 4 16 4ZM0 16C0 7.16344 7.16344 0 16 0C24.8366 0 32 7.16344 32 16C32 24.8366 24.8366 32 16 32C7.16344 32 0 24.8366 0 16Z" fill="url(#paint1_linear)"/>
<path d="M16.0813 22.6666C15.3333 22.6666 14.6558 22.5193 14.0488 22.2246C13.4417 21.9177 12.9539 21.4511 12.5854 20.825C12.2168 20.1988 12.0217 19.4131 12 18.4677H14.0488C14.0596 19.0938 14.2385 19.6218 14.5854 20.0515C14.9431 20.4689 15.4417 20.6776 16.0813 20.6776C16.6883 20.6776 17.1545 20.4873 17.4797 20.1067C17.8049 19.7261 17.9675 19.2473 17.9675 18.6703C17.9675 17.995 17.7507 17.4855 17.3171 17.1417C16.8943 16.7857 16.3469 16.6077 15.6748 16.6077H14.8293V14.674H15.6911C16.2439 14.674 16.7046 14.5266 17.0732 14.232C17.4417 13.9373 17.626 13.5015 17.626 12.9244C17.626 12.4456 17.4851 12.065 17.2033 11.7826C16.9322 11.4879 16.5528 11.3406 16.065 11.3406C15.5339 11.3406 15.1165 11.5186 14.813 11.8747C14.5203 12.2307 14.3577 12.6666 14.3252 13.1822H12.2927C12.336 11.9913 12.6992 11.0521 13.3821 10.3646C14.0759 9.67702 14.9702 9.33325 16.065 9.33325C16.8455 9.33325 17.5014 9.49286 18.0325 9.81207C18.5745 10.119 18.981 10.5303 19.252 11.046C19.5339 11.5616 19.6748 12.1325 19.6748 12.7587C19.6748 13.483 19.4959 14.0969 19.1382 14.6003C18.7913 15.0914 18.3577 15.4229 17.8374 15.5948C18.477 15.7421 18.9973 16.0981 19.3984 16.6629C19.7995 17.2154 20 17.9152 20 18.7623C20 19.4744 19.8482 20.1251 19.5447 20.7145C19.2412 21.3038 18.7967 21.7765 18.2114 22.1325C17.6369 22.4886 16.9268 22.6666 16.0813 22.6666Z" fill="white"/>
<defs>
<linearGradient id="paint0_linear" x1="19.2308" y1="28.5641" x2="3.79487" y2="5.23077" gradientUnits="userSpaceOnUse">
<stop stop-color="#81A8FF"/>
<stop offset="1" stop-color="#DFE9FF"/>
</linearGradient>
<linearGradient id="paint1_linear" x1="16" y1="0" x2="16" y2="32" gradientUnits="userSpaceOnUse">
<stop stop-color="#81A8FF"/>
<stop offset="1" stop-color="#DFE9FF"/>
</linearGradient>
</defs>
</svg>
