<svg width="24" height="24" viewBox="0 0 24 24" fill="none" xmlns="http://www.w3.org/2000/svg">
<circle opacity="0.1" cx="12" cy="12" r="12" fill="#3E7AFF"/>
<path d="M9.12015 9.13417C9.00366 9.5543 9.36288 9.92236 9.79886 9.92236C10.2026 9.92236 10.5153 9.5949 10.6894 9.23057C10.955 8.67472 11.5033 8.34766 12.2446 8.34766C13.248 8.34766 13.8999 8.95557 13.8999 9.7832C13.8999 10.5376 13.585 10.9624 12.6987 11.4971C11.6953 12.0977 11.3477 12.6567 11.3477 13.1567L11.3285 13.5805C11.3089 14.0136 11.655 14.3755 12.0885 14.3755C12.4922 14.3755 12.8257 14.0599 12.8477 13.6567C12.8477 12.9023 13.0796 12.7861 14.0244 12.2295C14.9912 11.6509 15.5625 10.8525 15.5625 9.71729C15.5625 8.1499 14.2588 7 12.3252 7C10.5526 7 9.4686 7.87743 9.12015 9.13417ZM12.0615 17.7666C12.6108 17.7666 13.0283 17.3564 13.0283 16.8218C13.0283 16.2871 12.6108 15.877 12.0615 15.877C11.5269 15.877 11.1021 16.2871 11.1021 16.8218C11.1021 17.3564 11.5269 17.7666 12.0615 17.7666Z" fill="url(#paint0_linear)"/>
<defs>
<linearGradient id="paint0_linear" x1="12.2812" y1="7" x2="12.2813" y2="17.7666" gradientUnits="userSpaceOnUse">
<stop stop-color="#B4CBFF"/>
<stop offset="1" stop-color="#6B99FF"/>
</linearGradient>
</defs>
</svg>
