<svg width="68" height="60" viewBox="0 0 68 60" fill="none" xmlns="http://www.w3.org/2000/svg">
<path fill-rule="evenodd" clip-rule="evenodd" d="M55.6582 12H54.4V6H55.6582C63.3873 6 69.1006 13.1999 67.3443 20.7268C66.0771 26.1578 61.2352 30 55.6582 30H49V24H55.6582C58.4467 24 60.8677 22.0789 61.5013 19.3634C62.3794 15.6 59.5228 12 55.6582 12Z" fill="url(#paint0_linear)"/>
<path fill-rule="evenodd" clip-rule="evenodd" d="M12.3418 12H13.6V6H12.3418C4.61273 6 -1.10061 13.1999 0.655657 20.7268C1.92291 26.1578 6.7648 30 12.3418 30H19V24H12.3418C9.55328 24 7.13233 22.0789 6.4987 19.3634C5.62057 15.6 8.47724 12 12.3418 12Z" fill="url(#paint1_linear)"/>
<path fill-rule="evenodd" clip-rule="evenodd" d="M10 3C10 1.34315 11.3431 0 13 0H55C56.6568 0 58 1.34315 58 3C58 12.1464 57.1187 18.579 55.171 23.5873C53.1814 28.7034 50.1756 32.0865 46.4524 35.2778C45.4802 36.1111 44.7851 37.5376 44.3967 39.8682C44.0079 42.2006 44 44.9359 44 48C44 49.6569 42.6568 51 41 51H27C25.3431 51 24.5 49.1569 24.5 47.5C24.5 44.4359 24.3887 42.2006 24 39.8682C23.6116 37.5376 22.5198 36.1111 21.5476 35.2778C17.8244 32.0865 14.8186 28.7034 12.829 23.5873C10.8813 18.579 10 12.1464 10 3Z" fill="url(#paint2_linear)"/>
<path fill-rule="evenodd" clip-rule="evenodd" d="M22 45C20.3431 45 19 46.3431 19 48V57C19 58.6569 20.3431 60 22 60H46C47.6569 60 49 58.6569 49 57V48C49 46.3431 47.6569 45 46 45H22Z" fill="url(#paint3_linear)"/>
<path fill-rule="evenodd" clip-rule="evenodd" d="M34.0009 8.99997L31.4088 14.4322L25.4414 15.2188L29.8068 19.3627L28.7108 25.2811L34.0009 22.41L39.291 25.2811L38.1951 19.3627L42.5604 15.2188L36.593 14.4322L34.0009 8.99997Z" fill="url(#paint4_linear)"/>
<defs>
<linearGradient id="paint0_linear" x1="49" y1="7.64706" x2="60.4146" y2="13.0774" gradientUnits="userSpaceOnUse">
<stop stop-color="#FFEED5"/>
<stop offset="1" stop-color="#F5B555"/>
</linearGradient>
<linearGradient id="paint1_linear" x1="8" y1="7" x2="14.9295" y2="31.1671" gradientUnits="userSpaceOnUse">
<stop stop-color="#FFEED5"/>
<stop offset="0.780504" stop-color="#F5B555"/>
</linearGradient>
<linearGradient id="paint2_linear" x1="10" y1="3.5" x2="34" y2="44" gradientUnits="userSpaceOnUse">
<stop stop-color="#FFEED5"/>
<stop offset="1" stop-color="#F5B555"/>
</linearGradient>
<linearGradient id="paint3_linear" x1="15" y1="53" x2="32.0326" y2="65.3587" gradientUnits="userSpaceOnUse">
<stop stop-color="#FFEED5"/>
<stop offset="1" stop-color="#F5B555"/>
</linearGradient>
<linearGradient id="paint4_linear" x1="10.0005" y1="-9.00003" x2="29.4912" y2="21.8982" gradientUnits="userSpaceOnUse">
<stop stop-color="#FFE5BE"/>
<stop offset="1" stop-color="#F3B251"/>
</linearGradient>
</defs>
</svg>
