<svg width="7" height="10" viewBox="0 0 7 10" fill="none" xmlns="http://www.w3.org/2000/svg">
<path opacity="0.5" d="M2.09909 6.516L2.05109 4.56H2.50709C2.93909 4.56 3.33509 4.52 3.69509 4.44C4.06309 4.36 4.35509 4.204 4.57109 3.972C4.79509 3.74 4.90709 3.396 4.90709 2.94C4.90709 2.5 4.77109 2.156 4.49909 1.908C4.22709 1.652 3.87109 1.524 3.43109 1.524C2.97509 1.524 2.61509 1.648 2.35109 1.896C2.08709 2.144 1.95509 2.48 1.95509 2.904H0.755094C0.747094 2.424 0.851094 2 1.06709 1.632C1.29109 1.264 1.60309 0.976 2.00309 0.767999C2.41109 0.56 2.88709 0.456 3.43109 0.456C3.95909 0.456 4.42709 0.556 4.83509 0.756C5.24309 0.955999 5.55909 1.244 5.78309 1.62C6.01509 1.988 6.13109 2.432 6.13109 2.952C6.13109 3.52 6.00709 3.988 5.75909 4.356C5.51109 4.716 5.17109 4.984 4.73909 5.16C4.30709 5.328 3.81109 5.412 3.25109 5.412L3.21509 6.516H2.09909ZM2.66309 9.072C2.41509 9.072 2.21509 8.996 2.06309 8.844C1.91109 8.684 1.83509 8.496 1.83509 8.28C1.83509 8.056 1.91109 7.868 2.06309 7.716C2.21509 7.556 2.41509 7.476 2.66309 7.476C2.89509 7.476 3.08709 7.556 3.23909 7.716C3.39909 7.868 3.47909 8.056 3.47909 8.28C3.47909 8.496 3.39909 8.684 3.23909 8.844C3.08709 8.996 2.89509 9.072 2.66309 9.072Z" fill="#042560"/>
</svg>
