<svg width="20" height="20" viewBox="0 0 20 20" fill="none" xmlns="http://www.w3.org/2000/svg">
<circle opacity="0.75" cx="10" cy="10" r="10" fill="#042560"/>
<path d="M6.65234 7.26562H8.16846C8.23438 6.29883 8.88623 5.69092 9.89697 5.69092C10.9004 5.69092 11.5522 6.29883 11.5522 7.12646C11.5522 7.88086 11.2373 8.30566 10.3511 8.84033C9.34766 9.44092 8.90088 10.1001 8.9375 11.1328L8.94482 11.7188H10.4609V11.272C10.4609 10.5176 10.7319 10.1294 11.6768 9.57275C12.6436 8.99414 13.2148 8.1958 13.2148 7.06055C13.2148 5.49316 11.9111 4.34326 9.97754 4.34326C7.85352 4.34326 6.71826 5.60303 6.65234 7.26562ZM9.71387 15.1099C10.2632 15.1099 10.6807 14.6997 10.6807 14.165C10.6807 13.6304 10.2632 13.2202 9.71387 13.2202C9.1792 13.2202 8.75439 13.6304 8.75439 14.165C8.75439 14.6997 9.1792 15.1099 9.71387 15.1099Z" fill="white"/>
</svg>
