<svg width="192" height="183" viewBox="0 0 192 183" fill="none" xmlns="http://www.w3.org/2000/svg">
<g filter="url(#filter0_d)">
<path d="M12 8C12 3.58172 15.5817 0 20 0H172C176.418 0 180 3.58172 180 8V141C180 145.418 176.418 149 172 149H128H112H107.845C105.415 149 103.116 150.105 101.598 152.002L96 159L90.402 152.002C88.8838 150.105 86.5853 149 84.155 149H80H64H20C15.5817 149 12 145.418 12 141V8Z" fill="white"/>
<path d="M12.5 8C12.5 3.85786 15.8579 0.5 20 0.5H172C176.142 0.5 179.5 3.85786 179.5 8V141C179.5 145.142 176.142 148.5 172 148.5H128H112H107.845C105.263 148.5 102.821 149.674 101.208 151.69L96 158.2L90.7924 151.69C89.1793 149.674 86.7372 148.5 84.155 148.5H80H64H20C15.8579 148.5 12.5 145.142 12.5 141V8Z" stroke="#3E7AFF" stroke-opacity="0.2"/>
</g>
<defs>
<filter id="filter0_d" x="0" y="0" width="192" height="183" filterUnits="userSpaceOnUse" color-interpolation-filters="sRGB">
<feFlood flood-opacity="0" result="BackgroundImageFix"/>
<feColorMatrix in="SourceAlpha" type="matrix" values="0 0 0 0 0 0 0 0 0 0 0 0 0 0 0 0 0 0 127 0"/>
<feOffset dy="12"/>
<feGaussianBlur stdDeviation="6"/>
<feColorMatrix type="matrix" values="0 0 0 0 0.0156863 0 0 0 0 0.145098 0 0 0 0 0.376471 0 0 0 0.04 0"/>
<feBlend mode="normal" in2="BackgroundImageFix" result="effect1_dropShadow"/>
<feBlend mode="normal" in="SourceGraphic" in2="effect1_dropShadow" result="shape"/>
</filter>
</defs>
</svg>
