<svg width="48" height="48" viewBox="0 0 48 48" fill="none" xmlns="http://www.w3.org/2000/svg">
<path d="M18.1602 21.6895C18.1602 17.2712 21.7419 13.6895 26.1602 13.6895H42.7464C42.2248 14.7326 41.9533 15.8828 41.9533 17.0491V30.3446V44.0133C41.9533 45.0609 42.2266 46.0903 42.7464 46.9998H26.1602C21.7419 46.9998 18.1602 43.4181 18.1602 38.9998V21.6895Z" fill="url(#paint0_linear)"/>
<g filter="url(#filter0_f)">
<path d="M21.7285 23.5613V20.9036H22.6411C22.8399 20.9036 23.0033 20.9403 23.1311 21.0137C23.2613 21.0846 23.3584 21.182 23.4223 21.306C23.4862 21.4275 23.5181 21.5629 23.5181 21.7123C23.5181 21.8743 23.4779 22.0224 23.3974 22.1565C23.3193 22.2907 23.1962 22.3881 23.0281 22.4489L23.543 23.5613H23.021L22.5594 22.5134H22.183V23.5613H21.7285ZM22.183 22.1565H22.6127C22.7642 22.1565 22.8754 22.1173 22.9465 22.0388C23.0175 21.9603 23.053 21.8566 23.053 21.7275C23.053 21.6009 23.0175 21.4997 22.9465 21.4237C22.8778 21.3478 22.7654 21.3098 22.6091 21.3098H22.183V22.1565Z" fill="url(#paint1_linear)"/>
<path d="M24.1752 21.3858C24.0924 21.3858 24.0237 21.3592 23.9693 21.306C23.9172 21.2529 23.8912 21.1858 23.8912 21.1048C23.8912 21.0238 23.9172 20.958 23.9693 20.9074C24.0237 20.8542 24.0924 20.8276 24.1752 20.8276C24.2581 20.8276 24.3255 20.8542 24.3776 20.9074C24.4321 20.958 24.4593 21.0238 24.4593 21.1048C24.4593 21.1858 24.4321 21.2529 24.3776 21.306C24.3255 21.3592 24.2581 21.3858 24.1752 21.3858ZM23.948 23.5613V21.6781H24.4025V23.5613H23.948Z" fill="url(#paint2_linear)"/>
<path d="M25.097 24.3966L25.5054 23.436H25.3989L24.7135 21.6781H25.2071L25.7007 23.0032L26.2156 21.6781H26.6985L25.5799 24.3966H25.097Z" fill="url(#paint3_linear)"/>
<path d="M27.4641 23.6069C27.3126 23.6069 27.1883 23.5816 27.0913 23.5309C26.9942 23.4778 26.922 23.4082 26.8747 23.3221C26.8273 23.2361 26.8036 23.1411 26.8036 23.0374C26.8036 22.8627 26.8676 22.721 26.9954 22.6121C27.1232 22.5033 27.315 22.4489 27.5706 22.4489H28.018V22.4033C28.018 22.2742 27.9837 22.1793 27.9151 22.1185C27.8464 22.0578 27.7612 22.0274 27.6594 22.0274C27.5671 22.0274 27.4866 22.0515 27.4179 22.0996C27.3493 22.1451 27.3067 22.2135 27.2901 22.3046H26.8462C26.8581 22.1679 26.9007 22.0489 26.9741 21.9477C27.0498 21.8464 27.1469 21.7692 27.2652 21.7161C27.3836 21.6604 27.5162 21.6326 27.6629 21.6326C27.9139 21.6326 28.1115 21.6996 28.2559 21.8338C28.4003 21.9679 28.4725 22.1578 28.4725 22.4033V23.5613H28.0855L28.0429 23.2576C27.9908 23.3588 27.9174 23.4423 27.8227 23.5082C27.7304 23.574 27.6109 23.6069 27.4641 23.6069ZM27.5671 23.2272C27.6973 23.2272 27.7979 23.1816 27.8689 23.0905C27.9423 22.9994 27.9884 22.8868 28.0074 22.7526H27.6203C27.4996 22.7526 27.4132 22.7766 27.3611 22.8247C27.309 22.8703 27.283 22.9273 27.283 22.9956C27.283 23.069 27.309 23.1259 27.3611 23.1664C27.4132 23.2069 27.4819 23.2272 27.5671 23.2272Z" fill="url(#paint4_linear)"/>
<path d="M28.7926 23.5613V23.1702L29.691 22.0806H28.8033V21.6781H30.2094V22.0692L29.2969 23.1589H30.2272V23.5613H28.7926Z" fill="url(#paint5_linear)"/>
<path d="M30.8504 21.3858C30.7676 21.3858 30.6989 21.3592 30.6445 21.306C30.5924 21.2529 30.5664 21.1858 30.5664 21.1048C30.5664 21.0238 30.5924 20.958 30.6445 20.9074C30.6989 20.8542 30.7676 20.8276 30.8504 20.8276C30.9333 20.8276 31.0007 20.8542 31.0528 20.9074C31.1073 20.958 31.1345 21.0238 31.1345 21.1048C31.1345 21.1858 31.1073 21.2529 31.0528 21.306C31.0007 21.3592 30.9333 21.3858 30.8504 21.3858ZM30.6232 23.5613V21.6781H31.0777V23.5613H30.6232Z" fill="url(#paint6_linear)"/>
<path d="M31.7722 24.3966L32.1806 23.436H32.0741L31.3887 21.6781H31.8823L32.3759 23.0032L32.8908 21.6781H33.3737L32.2551 24.3966H31.7722Z" fill="url(#paint7_linear)"/>
<path d="M33.891 24.3966L34.2993 23.436H34.1928L33.5075 21.6781H34.001L34.4946 23.0032L35.0095 21.6781H35.4924L34.3739 24.3966H33.891Z" fill="url(#paint8_linear)"/>
<path d="M36.258 23.6069C36.1065 23.6069 35.9822 23.5816 35.8852 23.5309C35.7881 23.4778 35.7159 23.4082 35.6686 23.3221C35.6212 23.2361 35.5976 23.1411 35.5976 23.0374C35.5976 22.8627 35.6615 22.721 35.7893 22.6121C35.9171 22.5033 36.1089 22.4489 36.3645 22.4489H36.812V22.4033C36.812 22.2742 36.7776 22.1793 36.709 22.1185C36.6403 22.0578 36.5551 22.0274 36.4533 22.0274C36.361 22.0274 36.2805 22.0515 36.2119 22.0996C36.1432 22.1451 36.1006 22.2135 36.084 22.3046H35.6402C35.652 22.1679 35.6946 22.0489 35.768 21.9477C35.8438 21.8464 35.9408 21.7692 36.0592 21.7161C36.1775 21.6604 36.3101 21.6326 36.4569 21.6326C36.7078 21.6326 36.9055 21.6996 37.0499 21.8338C37.1943 21.9679 37.2665 22.1578 37.2665 22.4033V23.5613H36.8794L36.8368 23.2576C36.7847 23.3588 36.7113 23.4423 36.6167 23.5082C36.5243 23.574 36.4048 23.6069 36.258 23.6069ZM36.361 23.2272C36.4912 23.2272 36.5918 23.1816 36.6628 23.0905C36.7362 22.9994 36.7824 22.8868 36.8013 22.7526H36.4143C36.2935 22.7526 36.2071 22.7766 36.155 22.8247C36.103 22.8703 36.0769 22.9273 36.0769 22.9956C36.0769 23.069 36.103 23.1259 36.155 23.1664C36.2071 23.2069 36.2758 23.2272 36.361 23.2272Z" fill="url(#paint9_linear)"/>
<path d="M38.4607 23.5613C38.276 23.5613 38.1281 23.5132 38.0168 23.417C37.9055 23.3208 37.8499 23.15 37.8499 22.9045V22.0844H37.5481V21.6781H37.8499L37.9032 21.1731H38.3044V21.6781H38.7802V22.0844H38.3044V22.9083C38.3044 22.9994 38.3222 23.0627 38.3577 23.0981C38.3956 23.131 38.4595 23.1475 38.5494 23.1475H38.7696V23.5613H38.4607Z" fill="url(#paint10_linear)"/>
</g>
<g filter="url(#filter1_f)">
<path d="M22.3243 40.6552C22.1877 40.6552 22.0755 40.6335 21.988 40.5902C21.9004 40.5447 21.8353 40.4851 21.7926 40.4114C21.7499 40.3377 21.7285 40.2565 21.7285 40.1676C21.7285 40.0181 21.7862 39.8968 21.9015 39.8036C22.0168 39.7104 22.1898 39.6638 22.4204 39.6638H22.8241V39.6248C22.8241 39.5143 22.7931 39.433 22.7312 39.381C22.6692 39.329 22.5923 39.303 22.5005 39.303C22.4172 39.303 22.3446 39.3236 22.2827 39.3648C22.2208 39.4038 22.1823 39.4623 22.1674 39.5403H21.767C21.7776 39.4233 21.8161 39.3214 21.8823 39.2348C21.9506 39.1481 22.0382 39.082 22.1449 39.0365C22.2517 38.9888 22.3713 38.965 22.5037 38.965C22.7301 38.965 22.9084 39.0224 23.0387 39.1372C23.1689 39.2521 23.2341 39.4146 23.2341 39.6248V40.6162H22.8849L22.8465 40.3562C22.7995 40.4428 22.7333 40.5143 22.6479 40.5707C22.5646 40.627 22.4567 40.6552 22.3243 40.6552ZM22.4172 40.3301C22.5347 40.3301 22.6254 40.2911 22.6895 40.2131C22.7557 40.1351 22.7974 40.0387 22.8144 39.9238H22.4653C22.3564 39.9238 22.2784 39.9444 22.2314 39.9856C22.1845 40.0246 22.161 40.0734 22.161 40.1319C22.161 40.1947 22.1845 40.2435 22.2314 40.2781C22.2784 40.3128 22.3403 40.3301 22.4172 40.3301Z" fill="white"/>
<path d="M23.5357 39.472V39.238L23.9105 38.9682C23.9702 38.9227 24.0183 38.8772 24.0546 38.8317C24.0909 38.7862 24.1091 38.7342 24.1091 38.6757C24.1091 38.6302 24.0962 38.5955 24.0706 38.5717C24.0471 38.5478 24.0172 38.5359 23.9809 38.5359C23.8955 38.5359 23.8475 38.5868 23.8368 38.6887H23.5261C23.5325 38.5782 23.5762 38.4861 23.6574 38.4124C23.7407 38.3387 23.8581 38.3019 24.0098 38.3019C24.1528 38.3019 24.2607 38.3387 24.3333 38.4124C24.4059 38.4839 24.4422 38.5652 24.4422 38.6562C24.4422 38.7407 24.4134 38.8144 24.3557 38.8772C24.3002 38.94 24.2148 39.0061 24.0994 39.0755L23.8656 39.2218H24.439V39.472H23.5357Z" fill="white"/>
<path d="M24.7415 39.8491V39.5013H25.3437V38.939H25.6928V39.5013H26.2919V39.8491H25.6928V40.4114H25.3437V39.8491H24.7415Z" fill="white"/>
<path d="M27.6234 40.6552C27.5038 40.6552 27.3992 40.6324 27.3095 40.5869C27.2198 40.5414 27.1472 40.4775 27.0917 40.3952L27.0468 40.6162H26.6816V38.2759H27.0917V39.2348C27.1429 39.1632 27.2102 39.1004 27.2935 39.0462C27.3789 38.9921 27.4889 38.965 27.6234 38.965C27.7729 38.965 27.9064 39.0018 28.0238 39.0755C28.1413 39.1492 28.2342 39.2499 28.3025 39.3778C28.3709 39.5056 28.405 39.6508 28.405 39.8133C28.405 39.9759 28.3709 40.121 28.3025 40.2489C28.2342 40.3746 28.1413 40.4742 28.0238 40.5479C27.9064 40.6194 27.7729 40.6552 27.6234 40.6552ZM27.5369 40.2911C27.6672 40.2911 27.7751 40.2467 27.8605 40.1579C27.9459 40.069 27.9886 39.9542 27.9886 39.8133C27.9886 39.6725 27.9459 39.5565 27.8605 39.4655C27.7751 39.3745 27.6672 39.329 27.5369 39.329C27.4045 39.329 27.2956 39.3745 27.2102 39.4655C27.1269 39.5544 27.0853 39.6692 27.0853 39.8101C27.0853 39.9509 27.1269 40.0669 27.2102 40.1579C27.2956 40.2467 27.4045 40.2911 27.5369 40.2911Z" fill="white"/>
<path d="M28.6816 39.472V39.238L29.0564 38.9682C29.1162 38.9227 29.1643 38.8772 29.2006 38.8317C29.2369 38.7862 29.255 38.7342 29.255 38.6757C29.255 38.6302 29.2422 38.5955 29.2166 38.5717C29.1931 38.5478 29.1632 38.5359 29.1269 38.5359C29.0415 38.5359 28.9934 38.5868 28.9827 38.6887H28.672C28.6784 38.5782 28.7222 38.4861 28.8033 38.4124C28.8866 38.3387 29.0041 38.3019 29.1557 38.3019C29.2988 38.3019 29.4066 38.3387 29.4792 38.4124C29.5519 38.4839 29.5882 38.5652 29.5882 38.6562C29.5882 38.7407 29.5593 38.8144 29.5017 38.8772C29.4461 38.94 29.3607 39.0061 29.2454 39.0755L29.0116 39.2218H29.585V39.472H28.6816Z" fill="white"/>
<path d="M29.897 39.4948V39.1307H31.2552V39.4948H29.897ZM29.897 40.2164V39.8523H31.2552V40.2164H29.897Z" fill="white"/>
<path d="M31.6524 40.6162V38.2759H32.0625V39.251C32.1158 39.1622 32.1874 39.0928 32.2771 39.043C32.3689 38.991 32.4735 38.965 32.591 38.965C32.7875 38.965 32.9391 39.0278 33.0459 39.1535C33.1548 39.2792 33.2092 39.4634 33.2092 39.7061V40.6162H32.8024V39.7451C32.8024 39.6064 32.7747 39.5002 32.7191 39.4265C32.6657 39.3529 32.5803 39.316 32.4629 39.316C32.3475 39.316 32.2514 39.3572 32.1746 39.4395C32.0998 39.5219 32.0625 39.6367 32.0625 39.7841V40.6162H31.6524Z" fill="white"/>
<path d="M33.5116 39.472V39.238L33.8864 38.9682C33.9462 38.9227 33.9943 38.8772 34.0306 38.8317C34.0669 38.7862 34.085 38.7342 34.085 38.6757C34.085 38.6302 34.0722 38.5955 34.0466 38.5717C34.0231 38.5478 33.9932 38.5359 33.9569 38.5359C33.8715 38.5359 33.8234 38.5868 33.8127 38.6887H33.502C33.5084 38.5782 33.5522 38.4861 33.6334 38.4124C33.7166 38.3387 33.8341 38.3019 33.9857 38.3019C34.1288 38.3019 34.2366 38.3387 34.3093 38.4124C34.3819 38.4839 34.4182 38.5652 34.4182 38.6562C34.4182 38.7407 34.3893 38.8144 34.3317 38.8772C34.2762 38.94 34.1907 39.0061 34.0754 39.0755L33.8416 39.2218H34.415V39.472H33.5116Z" fill="white"/>
</g>
<path d="M5 15.9761C5 11.5578 8.58172 7.97607 13 7.97607L29.5862 7.97607C29.0646 9.01921 28.7931 10.1695 28.7931 11.3357V24.6312V38.2999C28.7931 39.3475 29.0665 40.3769 29.5862 41.2864H13C8.58173 41.2864 5 37.7047 5 33.2864L5 15.9761Z" fill="url(#paint11_linear)"/>
<g filter="url(#filter2_f)">
<path d="M7.84961 17.4021L8.51415 15.3349H8.88796L9.5525 17.4021H9.19946L9.05409 16.9237H8.34542L8.19746 17.4021H7.84961ZM8.43628 16.6284H8.96324L8.69846 15.769L8.43628 16.6284Z" fill="white"/>
<path d="M9.69572 17.4021V17.0979L10.3525 16.2504H9.70351V15.9374H10.7315V16.2415L10.0643 17.089H10.7445V17.4021H9.69572Z" fill="white"/>
<path d="M11.6076 17.4375C11.4813 17.4375 11.3697 17.406 11.2728 17.343C11.1758 17.28 11.0997 17.1944 11.0443 17.0861C10.9907 16.9758 10.9638 16.8538 10.9638 16.7199C10.9638 16.6983 10.9638 16.6756 10.9638 16.652C10.9656 16.6284 10.9673 16.6038 10.969 16.5782H11.9477C11.9408 16.464 11.9053 16.3744 11.8412 16.3094C11.7789 16.2445 11.7028 16.212 11.6128 16.212C11.5453 16.212 11.4882 16.2297 11.4415 16.2651C11.3965 16.2986 11.3627 16.3429 11.3402 16.398H11.0028C11.027 16.3055 11.0668 16.2218 11.1222 16.147C11.1793 16.0702 11.2485 16.0102 11.3299 15.9669C11.4129 15.9236 11.5064 15.9019 11.6102 15.9019C11.74 15.9019 11.8551 15.9334 11.9555 15.9964C12.0558 16.0594 12.1346 16.148 12.1917 16.2622C12.2488 16.3764 12.2774 16.5083 12.2774 16.6579C12.2774 16.8095 12.2488 16.9443 12.1917 17.0625C12.1363 17.1806 12.0584 17.2731 11.9581 17.3401C11.8577 17.405 11.7409 17.4375 11.6076 17.4375ZM11.6076 17.1304C11.689 17.1304 11.7608 17.1048 11.8231 17.0536C11.8854 17.0005 11.9252 16.9207 11.9425 16.8144H11.3013C11.3065 16.9109 11.3376 16.9877 11.3948 17.0448C11.4519 17.1018 11.5228 17.1304 11.6076 17.1304Z" fill="white"/>
<path d="M12.5724 17.4021V15.9374H12.8683L12.8995 16.212C12.9462 16.1175 13.0094 16.0427 13.089 15.9876C13.1703 15.9305 13.2655 15.9019 13.3745 15.9019V16.3006H13.2811C13.2084 16.3006 13.1435 16.3134 13.0864 16.339C13.0293 16.3646 12.9843 16.4089 12.9514 16.4719C12.9202 16.5349 12.9047 16.6225 12.9047 16.7347V17.4021H12.5724Z" fill="white"/>
<path d="M14.3648 17.4375C14.2679 17.4375 14.1831 17.4168 14.1104 17.3755C14.0377 17.3342 13.9789 17.2761 13.9339 17.2013L13.8975 17.4021H13.6016V15.2759H13.9339V16.147C13.9754 16.0821 14.0299 16.025 14.0974 15.9758C14.1666 15.9265 14.2558 15.9019 14.3648 15.9019C14.4859 15.9019 14.5941 15.9354 14.6893 16.0023C14.7845 16.0693 14.8597 16.1608 14.9151 16.277C14.9705 16.3931 14.9982 16.525 14.9982 16.6727C14.9982 16.8203 14.9705 16.9522 14.9151 17.0684C14.8597 17.1826 14.7845 17.2731 14.6893 17.3401C14.5941 17.405 14.4859 17.4375 14.3648 17.4375ZM14.2947 17.1068C14.4003 17.1068 14.4877 17.0664 14.5569 16.9857C14.6261 16.905 14.6607 16.8006 14.6607 16.6727C14.6607 16.5447 14.6261 16.4394 14.5569 16.3567C14.4877 16.274 14.4003 16.2327 14.2947 16.2327C14.1874 16.2327 14.0992 16.274 14.0299 16.3567C13.9624 16.4374 13.9287 16.5418 13.9287 16.6697C13.9287 16.7977 13.9624 16.903 14.0299 16.9857C14.0992 17.0664 14.1874 17.1068 14.2947 17.1068Z" fill="white"/>
<path d="M15.7389 17.4375C15.6281 17.4375 15.5373 17.4178 15.4663 17.3784C15.3954 17.3371 15.3426 17.283 15.308 17.216C15.2734 17.1491 15.2561 17.0753 15.2561 16.9946C15.2561 16.8587 15.3028 16.7485 15.3963 16.6638C15.4897 16.5792 15.6299 16.5368 15.8168 16.5368H16.1439V16.5014C16.1439 16.401 16.1188 16.3272 16.0686 16.2799C16.0184 16.2327 15.9561 16.209 15.8817 16.209C15.8142 16.209 15.7553 16.2277 15.7052 16.2651C15.655 16.3006 15.6238 16.3537 15.6117 16.4246H15.2872C15.2959 16.3183 15.327 16.2258 15.3807 16.147C15.4361 16.0683 15.507 16.0082 15.5935 15.9669C15.6801 15.9236 15.777 15.9019 15.8843 15.9019C16.0677 15.9019 16.2122 15.9541 16.3178 16.0584C16.4233 16.1628 16.4761 16.3104 16.4761 16.5014V17.4021H16.1932L16.162 17.1658C16.124 17.2446 16.0703 17.3095 16.0011 17.3607C15.9336 17.4119 15.8462 17.4375 15.7389 17.4375ZM15.8142 17.1422C15.9094 17.1422 15.9829 17.1068 16.0348 17.0359C16.0885 16.965 16.1222 16.8774 16.1361 16.7731H15.8531C15.7649 16.7731 15.7017 16.7918 15.6636 16.8292C15.6256 16.8646 15.6065 16.9089 15.6065 16.9621C15.6065 17.0192 15.6256 17.0635 15.6636 17.095C15.7017 17.1265 15.7519 17.1422 15.8142 17.1422Z" fill="white"/>
<path d="M16.9111 18.0517L17.2096 17.3046H17.1317L16.6307 15.9374H16.9915L17.3524 16.968L17.7288 15.9374H18.0818L17.2641 18.0517H16.9111Z" fill="white"/>
<path d="M18.8183 17.4375C18.6868 17.4375 18.5708 17.405 18.4704 17.3401C18.3701 17.2751 18.2904 17.1845 18.2316 17.0684C18.1745 16.9522 18.1459 16.8193 18.1459 16.6697C18.1459 16.5201 18.1745 16.3872 18.2316 16.2711C18.2904 16.1549 18.3701 16.0643 18.4704 15.9994C18.5708 15.9344 18.6868 15.9019 18.8183 15.9019C18.9827 15.9019 19.1211 15.9511 19.2336 16.0496C19.3461 16.146 19.4179 16.2799 19.4491 16.4512H19.0986C19.0813 16.3803 19.0467 16.3252 18.9948 16.2858C18.9446 16.2445 18.8849 16.2238 18.8157 16.2238C18.724 16.2238 18.6461 16.2632 18.5821 16.3419C18.518 16.4207 18.486 16.5299 18.486 16.6697C18.486 16.8095 18.518 16.9188 18.5821 16.9975C18.6461 17.0763 18.724 17.1156 18.8157 17.1156C18.8849 17.1156 18.9446 17.0959 18.9948 17.0566C19.0467 17.0172 19.0813 16.9611 19.0986 16.8882H19.4491C19.4179 17.0536 19.3461 17.1865 19.2336 17.2869C19.1211 17.3873 18.9827 17.4375 18.8183 17.4375Z" fill="white"/>
<path d="M20.1879 17.4375C20.0771 17.4375 19.9863 17.4178 19.9153 17.3784C19.8444 17.3371 19.7916 17.283 19.757 17.216C19.7224 17.1491 19.705 17.0753 19.705 16.9946C19.705 16.8587 19.7518 16.7485 19.8452 16.6638C19.9387 16.5792 20.0789 16.5368 20.2658 16.5368H20.5928V16.5014C20.5928 16.401 20.5677 16.3272 20.5176 16.2799C20.4674 16.2327 20.4051 16.209 20.3307 16.209C20.2632 16.209 20.2043 16.2277 20.1541 16.2651C20.1039 16.3006 20.0728 16.3537 20.0607 16.4246H19.7362C19.7449 16.3183 19.776 16.2258 19.8297 16.147C19.885 16.0683 19.956 16.0082 20.0425 15.9669C20.129 15.9236 20.226 15.9019 20.3333 15.9019C20.5167 15.9019 20.6612 15.9541 20.7668 16.0584C20.8723 16.1628 20.9251 16.3104 20.9251 16.5014V17.4021H20.6422L20.611 17.1658C20.5729 17.2446 20.5193 17.3095 20.4501 17.3607C20.3826 17.4119 20.2952 17.4375 20.1879 17.4375ZM20.2632 17.1422C20.3583 17.1422 20.4319 17.1068 20.4838 17.0359C20.5375 16.965 20.5712 16.8774 20.585 16.7731H20.3021C20.2138 16.7731 20.1507 16.7918 20.1126 16.8292C20.0745 16.8646 20.0555 16.9089 20.0555 16.9621C20.0555 17.0192 20.0745 17.0635 20.1126 17.095C20.1507 17.1265 20.2009 17.1422 20.2632 17.1422Z" fill="white"/>
<path d="M21.2422 17.4021V15.9374H21.5355L21.5615 16.1854C21.6013 16.0988 21.6584 16.0299 21.7328 15.9787C21.809 15.9275 21.8981 15.9019 22.0002 15.9019C22.1594 15.9019 22.2831 15.959 22.3714 16.0732C22.4597 16.1874 22.5038 16.3547 22.5038 16.5752V17.4021H22.1715V16.6107C22.1715 16.4847 22.149 16.3882 22.104 16.3213C22.059 16.2543 21.9889 16.2209 21.8938 16.2209C21.8003 16.2209 21.7233 16.2583 21.6627 16.3331C21.6039 16.4079 21.5745 16.5122 21.5745 16.6461V17.4021H21.2422Z" fill="white"/>
<path d="M24.0319 17.4375C23.9108 17.4375 23.8026 17.404 23.7074 17.3371C23.6123 17.2702 23.537 17.1786 23.4816 17.0625C23.4262 16.9463 23.3985 16.8144 23.3985 16.6668C23.3985 16.5191 23.4262 16.3882 23.4816 16.274C23.537 16.1579 23.6123 16.0673 23.7074 16.0023C23.8026 15.9354 23.9108 15.9019 24.0319 15.9019C24.1288 15.9019 24.2136 15.9226 24.2863 15.9639C24.359 16.0053 24.4178 16.0634 24.4628 16.1382V15.2759H24.7951V17.4021H24.4992L24.4628 17.1924C24.4213 17.2574 24.3659 17.3145 24.2967 17.3637C24.2292 17.4129 24.1409 17.4375 24.0319 17.4375ZM24.102 17.1068C24.2093 17.1068 24.2967 17.0664 24.3642 16.9857C24.4334 16.903 24.468 16.7977 24.468 16.6697C24.468 16.5418 24.4334 16.4374 24.3642 16.3567C24.2967 16.274 24.2093 16.2327 24.102 16.2327C23.9964 16.2327 23.909 16.273 23.8398 16.3537C23.7706 16.4345 23.736 16.5388 23.736 16.6668C23.736 16.7947 23.7706 16.9001 23.8398 16.9827C23.909 17.0654 23.9964 17.1068 24.102 17.1068Z" fill="white"/>
<path d="M25.3126 15.71C25.252 15.71 25.2018 15.6893 25.162 15.648C25.1239 15.6066 25.1049 15.5544 25.1049 15.4915C25.1049 15.4285 25.1239 15.3773 25.162 15.3379C25.2018 15.2966 25.252 15.2759 25.3126 15.2759C25.3731 15.2759 25.4225 15.2966 25.4605 15.3379C25.5003 15.3773 25.5202 15.4285 25.5202 15.4915C25.5202 15.5544 25.5003 15.6066 25.4605 15.648C25.4225 15.6893 25.3731 15.71 25.3126 15.71ZM25.1464 17.4021V15.9374H25.4787V17.4021H25.1464Z" fill="white"/>
<path d="M25.8255 17.4021V15.2759H26.1578V17.4021H25.8255Z" fill="white"/>
<path d="M26.6764 15.71C26.6159 15.71 26.5657 15.6893 26.5259 15.648C26.4878 15.6066 26.4688 15.5544 26.4688 15.4915C26.4688 15.4285 26.4878 15.3773 26.5259 15.3379C26.5657 15.2966 26.6159 15.2759 26.6764 15.2759C26.737 15.2759 26.7863 15.2966 26.8244 15.3379C26.8642 15.3773 26.8841 15.4285 26.8841 15.4915C26.8841 15.5544 26.8642 15.6066 26.8244 15.648C26.7863 15.6893 26.737 15.71 26.6764 15.71ZM26.5103 17.4021V15.9374H26.8426V17.4021H26.5103Z" fill="white"/>
</g>
<g filter="url(#filter3_f)">
<path d="M9.10059 36.2933C8.63128 36.2933 8.2463 36.2247 7.94564 36.0874C7.64499 35.9433 7.42134 35.7546 7.27468 35.5213C7.12802 35.288 7.05469 35.0307 7.05469 34.7493C7.05469 34.2758 7.25268 33.8916 7.64866 33.5965C8.04464 33.3014 8.63861 33.1539 9.43057 33.1539H10.8165V33.0304C10.8165 32.6804 10.7102 32.4231 10.4975 32.2584C10.2849 32.0937 10.0209 32.0114 9.70556 32.0114C9.41957 32.0114 9.17025 32.0766 8.95759 32.2069C8.74494 32.3305 8.61294 32.5157 8.56161 32.7628H7.18668C7.22335 32.3922 7.35534 32.0697 7.58266 31.7952C7.81732 31.5207 8.11797 31.3115 8.48462 31.1674C8.85127 31.0164 9.26191 30.9409 9.71656 30.9409C10.4939 30.9409 11.1062 31.1228 11.5535 31.4864C12.0008 31.8501 12.2244 32.3648 12.2244 33.0304V36.1698H11.0255L10.8935 35.3463C10.7322 35.6208 10.5049 35.8472 10.2115 36.0257C9.92555 36.2041 9.55523 36.2933 9.10059 36.2933ZM9.41957 35.264C9.82289 35.264 10.1345 35.1405 10.3545 34.8934C10.5818 34.6464 10.7248 34.341 10.7835 33.9773H9.58456C9.21058 33.9773 8.94293 34.0425 8.7816 34.1729C8.62028 34.2964 8.53961 34.4508 8.53961 34.6361C8.53961 34.8351 8.62028 34.9895 8.7816 35.0993C8.94293 35.2091 9.15559 35.264 9.41957 35.264Z" fill="white"/>
<path d="M16.8018 36.2933C16.3912 36.2933 16.0319 36.2212 15.7239 36.0771C15.4159 35.933 15.1666 35.7306 14.9759 35.4698L14.8219 36.1698H13.568V28.7588H14.9759V31.7952C15.1519 31.5688 15.3829 31.3698 15.6689 31.1982C15.9622 31.0267 16.3399 30.9409 16.8018 30.9409C17.3152 30.9409 17.7735 31.0576 18.1768 31.2909C18.5801 31.5242 18.8991 31.8433 19.1337 32.2481C19.3684 32.653 19.4857 33.1127 19.4857 33.6274C19.4857 34.142 19.3684 34.6018 19.1337 35.0066C18.8991 35.4046 18.5801 35.7203 18.1768 35.9536C17.7735 36.18 17.3152 36.2933 16.8018 36.2933ZM16.5049 35.1405C16.9522 35.1405 17.3225 34.9998 17.6158 34.7184C17.9091 34.4371 18.0558 34.0734 18.0558 33.6274C18.0558 33.1814 17.9091 32.8142 17.6158 32.526C17.3225 32.2378 16.9522 32.0937 16.5049 32.0937C16.0502 32.0937 15.6762 32.2378 15.3829 32.526C15.0969 32.8074 14.9539 33.1711 14.9539 33.6171C14.9539 34.0631 15.0969 34.4302 15.3829 34.7184C15.6762 34.9998 16.0502 35.1405 16.5049 35.1405Z" fill="white"/>
<path d="M23.4163 36.2933C22.859 36.2933 22.3677 36.18 21.9424 35.9536C21.5171 35.7272 21.1797 35.4115 20.9304 35.0066C20.6884 34.6018 20.5674 34.1386 20.5674 33.6171C20.5674 33.0956 20.6884 32.6324 20.9304 32.2275C21.1797 31.8227 21.5171 31.507 21.9424 31.2806C22.3677 31.0541 22.859 30.9409 23.4163 30.9409C24.1129 30.9409 24.6996 31.1125 25.1762 31.4556C25.6529 31.7918 25.9572 32.2584 26.0892 32.8554H24.6042C24.5309 32.6084 24.3843 32.4162 24.1643 32.279C23.9516 32.1349 23.6986 32.0628 23.4053 32.0628C23.0167 32.0628 22.6867 32.2001 22.4153 32.4746C22.144 32.749 22.0084 33.1299 22.0084 33.6171C22.0084 34.1043 22.144 34.4851 22.4153 34.7596C22.6867 35.0341 23.0167 35.1713 23.4053 35.1713C23.6986 35.1713 23.9516 35.1027 24.1643 34.9655C24.3843 34.8282 24.5309 34.6327 24.6042 34.3788H26.0892C25.9572 34.9552 25.6529 35.4184 25.1762 35.7683C24.6996 36.1183 24.1129 36.2933 23.4163 36.2933Z" fill="white"/>
</g>
<path d="M13.4023 9C13.4023 4.58172 16.9841 1 21.4023 1L37.9885 1C37.467 2.04314 37.1954 3.19338 37.1954 4.35964V17.6552V31.3239C37.1954 32.3714 37.4688 33.4008 37.9885 34.3103H21.4024C16.9841 34.3103 13.4023 30.7286 13.4023 26.3103V9Z" fill="url(#paint12_linear)"/>
<g filter="url(#filter4_f)">
<path d="M16.2804 9.43038V6.51963H15.3867V6.01743H17.7391V6.51963H16.8411V9.43038H16.2804Z" fill="white"/>
<path d="M18.5183 9.48889C18.3314 9.48889 18.178 9.45638 18.0583 9.39137C17.9386 9.32312 17.8495 9.23373 17.7911 9.12321C17.7327 9.0127 17.7035 8.89081 17.7035 8.75754C17.7035 8.53326 17.7823 8.35124 17.94 8.21147C18.0977 8.0717 18.3343 8.00182 18.6497 8.00182H19.2016V7.94331C19.2016 7.77754 19.1593 7.65565 19.0746 7.57764C18.9899 7.49963 18.8848 7.46062 18.7592 7.46062C18.6453 7.46062 18.546 7.4915 18.4613 7.55326C18.3766 7.61177 18.3241 7.69953 18.3036 7.81654H17.756C17.7706 7.64102 17.8232 7.48825 17.9137 7.35823C18.0072 7.22822 18.1269 7.12908 18.2729 7.06082C18.419 6.98931 18.5825 6.95356 18.7636 6.95356C19.0731 6.95356 19.317 7.03969 19.4951 7.21197C19.6733 7.38424 19.7624 7.62802 19.7624 7.94331V9.43038H19.2849L19.2323 9.04033C19.1681 9.17035 19.0775 9.27761 18.9607 9.36212C18.8468 9.44663 18.6993 9.48889 18.5183 9.48889ZM18.6453 9.00132C18.8059 9.00132 18.93 8.94282 19.0177 8.8258C19.1082 8.70879 19.1651 8.56414 19.1885 8.39187H18.711C18.5621 8.39187 18.4555 8.42275 18.3912 8.48451C18.327 8.54301 18.2948 8.61615 18.2948 8.70391C18.2948 8.79817 18.327 8.87131 18.3912 8.92331C18.4555 8.97532 18.5402 9.00132 18.6453 9.00132Z" fill="white"/>
<path d="M20.2974 9.43038V7.01206H20.7968L20.8494 7.4655C20.9283 7.30948 21.0349 7.18596 21.1692 7.09495C21.3065 7.00069 21.4671 6.95356 21.6511 6.95356V7.61177H21.4934C21.3707 7.61177 21.2612 7.6329 21.1648 7.67515C21.0684 7.71741 20.9925 7.79054 20.937 7.89455C20.8845 7.99857 20.8582 8.14321 20.8582 8.32849V9.43038H20.2974Z" fill="white"/>
<path d="M22.3366 6.63664C22.2344 6.63664 22.1497 6.60251 22.0825 6.53425C22.0182 6.46599 21.9861 6.37986 21.9861 6.27584C21.9861 6.17183 22.0182 6.08732 22.0825 6.02231C22.1497 5.95405 22.2344 5.91992 22.3366 5.91992C22.4388 5.91992 22.522 5.95405 22.5863 6.02231C22.6534 6.08732 22.687 6.17183 22.687 6.27584C22.687 6.37986 22.6534 6.46599 22.5863 6.53425C22.522 6.60251 22.4388 6.63664 22.3366 6.63664ZM22.0562 9.43038V7.01206H22.6169V9.43038H22.0562Z" fill="white"/>
<path d="M22.9963 9.43038L23.7848 8.22122L22.9963 7.01206H23.5964L24.1484 7.87018L24.696 7.01206H25.3005L24.5076 8.22122L25.3005 9.43038H24.696L24.1484 8.57227L23.5964 9.43038H22.9963Z" fill="white"/>
</g>
<g filter="url(#filter5_f)">
<path d="M15.701 27.301V25.7838L15.3867 25.8577V25.5893L15.8486 25.3839H16.0645V27.301H15.701Z" fill="white"/>
<path d="M17.0887 27.3338C16.9557 27.3338 16.8437 27.3083 16.7526 27.2572C16.6615 27.2042 16.5904 27.1357 16.5394 27.0518C16.4883 26.9678 16.4583 26.8774 16.4492 26.7806H16.7744C16.789 26.8646 16.8236 26.9294 16.8783 26.9751C16.9348 27.0207 17.0058 27.0435 17.0915 27.0435C17.2136 27.0435 17.3119 26.9879 17.3867 26.8765C17.4614 26.7633 17.5014 26.5917 17.5069 26.3616C17.4632 26.4365 17.3967 26.4986 17.3074 26.5478C17.2199 26.5971 17.1234 26.6218 17.0177 26.6218C16.912 26.6218 16.8127 26.5962 16.7198 26.5451C16.6268 26.494 16.5512 26.4219 16.4929 26.3288C16.4346 26.2356 16.4054 26.1261 16.4054 26.0001C16.4054 25.8851 16.4337 25.7783 16.4902 25.6797C16.5467 25.5811 16.625 25.5017 16.7252 25.4414C16.8254 25.3812 16.943 25.3511 17.0778 25.3511C17.2217 25.3511 17.3429 25.3775 17.4413 25.4305C17.5397 25.4834 17.6181 25.5546 17.6764 25.6441C17.7365 25.7336 17.7793 25.8331 17.8048 25.9426C17.8322 26.0522 17.8458 26.1644 17.8458 26.2795C17.8458 26.4931 17.8158 26.6793 17.7556 26.8381C17.6973 26.9952 17.6108 27.1175 17.496 27.2051C17.383 27.2909 17.2473 27.3338 17.0887 27.3338ZM17.0997 26.326C17.1671 26.326 17.2281 26.3114 17.2828 26.2822C17.3375 26.2512 17.3803 26.211 17.4112 26.1617C17.4422 26.1106 17.4577 26.054 17.4577 25.9919C17.4577 25.8933 17.4231 25.8121 17.3539 25.7482C17.2864 25.6843 17.2008 25.6523 17.0969 25.6523C16.9949 25.6523 16.9102 25.6843 16.8428 25.7482C16.7753 25.8102 16.7416 25.8897 16.7416 25.9864C16.7416 26.0887 16.7753 26.1708 16.8428 26.2329C16.9102 26.295 16.9958 26.326 17.0997 26.326Z" fill="white"/>
<path d="M18.3515 27.301V25.7838L18.0371 25.8577V25.5893L18.4991 25.3839H18.715V27.301H18.3515Z" fill="white"/>
<path d="M19.761 27.3338C19.6298 27.3338 19.5114 27.311 19.4057 27.2654C19.3 27.2179 19.2153 27.1513 19.1515 27.0654C19.0896 26.9796 19.0586 26.8801 19.0586 26.7669C19.0586 26.6501 19.0887 26.5478 19.1488 26.4602C19.2107 26.3726 19.2918 26.3096 19.392 26.2712C19.3046 26.2329 19.2353 26.1781 19.1843 26.1069C19.1333 26.0339 19.1078 25.9527 19.1078 25.8632C19.1078 25.7719 19.1324 25.6879 19.1816 25.6112C19.2308 25.5327 19.3037 25.4697 19.4002 25.4223C19.4986 25.3748 19.6189 25.3511 19.761 25.3511C19.9032 25.3511 20.0225 25.3748 20.1191 25.4223C20.2156 25.4697 20.2885 25.5327 20.3377 25.6112C20.3869 25.6879 20.4115 25.7719 20.4115 25.8632C20.4115 25.9508 20.3851 26.0321 20.3323 26.1069C20.2812 26.18 20.2129 26.2347 20.1273 26.2712C20.2293 26.3096 20.3104 26.3726 20.3705 26.4602C20.4307 26.5478 20.4607 26.6501 20.4607 26.7669C20.4607 26.8801 20.4297 26.9796 20.3678 27.0654C20.3058 27.1513 20.2211 27.2179 20.1136 27.2654C20.0079 27.311 19.8904 27.3338 19.761 27.3338ZM19.761 26.1672C19.8558 26.1672 19.9305 26.1425 19.9851 26.0932C20.0398 26.0439 20.0671 25.981 20.0671 25.9043C20.0671 25.8203 20.0398 25.7546 19.9851 25.7071C19.9323 25.6596 19.8576 25.6359 19.761 25.6359C19.6626 25.6359 19.587 25.6596 19.5342 25.7071C19.4813 25.7546 19.4549 25.8203 19.4549 25.9043C19.4549 25.9828 19.4813 26.0467 19.5342 26.096C19.5888 26.1434 19.6645 26.1672 19.761 26.1672ZM19.761 27.0408C19.8776 27.0408 19.966 27.0125 20.0261 26.9559C20.0863 26.8975 20.1163 26.8245 20.1163 26.7368C20.1163 26.64 20.0845 26.5643 20.0207 26.5095C19.9587 26.4547 19.8722 26.4274 19.761 26.4274C19.6499 26.4274 19.5615 26.4547 19.4959 26.5095C19.4321 26.5643 19.4002 26.64 19.4002 26.7368C19.4002 26.8245 19.4303 26.8975 19.4904 26.9559C19.5524 27.0125 19.6426 27.0408 19.761 27.0408Z" fill="white"/>
<path d="M20.7666 26.6547V26.3616H21.9118V26.6547H20.7666Z" fill="white"/>
<path d="M22.4539 27.301V25.7838L22.1396 25.8577V25.5893L22.6015 25.3839H22.8174V27.301H22.4539Z" fill="white"/>
<path d="M23.8416 27.3338C23.7086 27.3338 23.5965 27.3083 23.5054 27.2572C23.4143 27.2042 23.3432 27.1357 23.2922 27.0518C23.2412 26.9678 23.2111 26.8774 23.202 26.7806H23.5273C23.5418 26.8646 23.5765 26.9294 23.6311 26.9751C23.6876 27.0207 23.7587 27.0435 23.8443 27.0435C23.9664 27.0435 24.0648 26.9879 24.1395 26.8765C24.2142 26.7633 24.2543 26.5917 24.2598 26.3616C24.216 26.4365 24.1495 26.4986 24.0602 26.5478C23.9728 26.5971 23.8762 26.6218 23.7705 26.6218C23.6648 26.6218 23.5655 26.5962 23.4726 26.5451C23.3797 26.494 23.3041 26.4219 23.2458 26.3288C23.1874 26.2356 23.1583 26.1261 23.1583 26.0001C23.1583 25.8851 23.1865 25.7783 23.243 25.6797C23.2995 25.5811 23.3779 25.5017 23.4781 25.4414C23.5783 25.3812 23.6958 25.3511 23.8307 25.3511C23.9746 25.3511 24.0958 25.3775 24.1942 25.4305C24.2926 25.4834 24.3709 25.5546 24.4292 25.6441C24.4893 25.7336 24.5322 25.8331 24.5577 25.9426C24.585 26.0522 24.5987 26.1644 24.5987 26.2795C24.5987 26.4931 24.5686 26.6793 24.5085 26.8381C24.4502 26.9952 24.3636 27.1175 24.2488 27.2051C24.1359 27.2909 24.0001 27.3338 23.8416 27.3338ZM23.8525 26.326C23.9199 26.326 23.981 26.3114 24.0356 26.2822C24.0903 26.2512 24.1331 26.211 24.1641 26.1617C24.1951 26.1106 24.2106 26.054 24.2106 25.9919C24.2106 25.8933 24.1759 25.8121 24.1067 25.7482C24.0393 25.6843 23.9536 25.6523 23.8498 25.6523C23.7477 25.6523 23.663 25.6843 23.5956 25.7482C23.5282 25.8102 23.4945 25.8897 23.4945 25.9864C23.4945 26.0887 23.5282 26.1708 23.5956 26.2329C23.663 26.295 23.7487 26.326 23.8525 26.326Z" fill="white"/>
<path d="M24.8501 27.301V27.0463C24.9667 26.9495 25.0797 26.8537 25.189 26.7587C25.3002 26.6638 25.3986 26.5698 25.4842 26.4766C25.5717 26.3835 25.6409 26.2932 25.6919 26.2055C25.7448 26.1161 25.7712 26.0293 25.7712 25.9454C25.7712 25.8668 25.7493 25.7975 25.7056 25.7372C25.6637 25.677 25.5935 25.6468 25.4952 25.6468C25.3949 25.6468 25.3193 25.6797 25.2683 25.7454C25.2173 25.8112 25.1918 25.8906 25.1918 25.9837H24.8529C24.8565 25.8431 24.8875 25.7263 24.9458 25.6332C25.0041 25.5382 25.0815 25.4679 25.1781 25.4223C25.2747 25.3748 25.3831 25.3511 25.5034 25.3511C25.6983 25.3511 25.8496 25.4049 25.9571 25.5127C26.0664 25.6185 26.121 25.7564 26.121 25.9262C26.121 26.0321 26.0964 26.1352 26.0473 26.2356C25.9999 26.3361 25.937 26.4328 25.8587 26.5259C25.7803 26.6191 25.6956 26.7067 25.6045 26.7888C25.5134 26.8692 25.425 26.944 25.3394 27.0134H26.1675V27.301H24.8501Z" fill="white"/>
<path d="M27.2291 27.3338C27.0523 27.3338 26.9011 27.2928 26.7754 27.2106C26.6497 27.1266 26.5522 27.0107 26.4829 26.8628C26.4155 26.7131 26.3818 26.5396 26.3818 26.3425C26.3818 26.1471 26.4155 25.9746 26.4829 25.8249C26.5522 25.6751 26.6497 25.5592 26.7754 25.4771C26.9011 25.3931 27.0523 25.3511 27.2291 25.3511C27.4058 25.3511 27.5571 25.3931 27.6828 25.4771C27.8085 25.5592 27.9051 25.6751 27.9725 25.8249C28.0418 25.9746 28.0764 26.1471 28.0764 26.3425C28.0764 26.5396 28.0418 26.7131 27.9725 26.8628C27.9051 27.0107 27.8085 27.1266 27.6828 27.2106C27.5571 27.2928 27.4058 27.3338 27.2291 27.3338ZM27.2291 27.0189C27.373 27.0189 27.4906 26.9586 27.5817 26.8381C27.6728 26.7176 27.7183 26.5524 27.7183 26.3425C27.7183 26.1325 27.6728 25.9673 27.5817 25.8468C27.4906 25.7263 27.373 25.666 27.2291 25.666C27.0833 25.666 26.9649 25.7263 26.8738 25.8468C26.7845 25.9673 26.7399 26.1325 26.7399 26.3425C26.7399 26.5524 26.7845 26.7176 26.8738 26.8381C26.9649 26.9586 27.0833 27.0189 27.2291 27.0189Z" fill="white"/>
</g>
<defs>
<filter id="filter0_f" x="20.7285" y="19.8276" width="19.0517" height="5.56897" filterUnits="userSpaceOnUse" color-interpolation-filters="sRGB">
<feFlood flood-opacity="0" result="BackgroundImageFix"/>
<feBlend mode="normal" in="SourceGraphic" in2="BackgroundImageFix" result="shape"/>
<feGaussianBlur stdDeviation="0.5" result="effect1_foregroundBlur"/>
</filter>
<filter id="filter1_f" x="20.7285" y="37.2759" width="14.6897" height="4.37931" filterUnits="userSpaceOnUse" color-interpolation-filters="sRGB">
<feFlood flood-opacity="0" result="BackgroundImageFix"/>
<feBlend mode="normal" in="SourceGraphic" in2="BackgroundImageFix" result="shape"/>
<feGaussianBlur stdDeviation="0.5" result="effect1_foregroundBlur"/>
</filter>
<filter id="filter2_f" x="6.84961" y="14.2759" width="21.0345" height="4.77586" filterUnits="userSpaceOnUse" color-interpolation-filters="sRGB">
<feFlood flood-opacity="0" result="BackgroundImageFix"/>
<feBlend mode="normal" in="SourceGraphic" in2="BackgroundImageFix" result="shape"/>
<feGaussianBlur stdDeviation="0.5" result="effect1_foregroundBlur"/>
</filter>
<filter id="filter3_f" x="6.05469" y="27.7588" width="21.0345" height="9.53448" filterUnits="userSpaceOnUse" color-interpolation-filters="sRGB">
<feFlood flood-opacity="0" result="BackgroundImageFix"/>
<feBlend mode="normal" in="SourceGraphic" in2="BackgroundImageFix" result="shape"/>
<feGaussianBlur stdDeviation="0.5" result="effect1_foregroundBlur"/>
</filter>
<filter id="filter4_f" x="14.3867" y="4.91992" width="11.9138" height="5.56897" filterUnits="userSpaceOnUse" color-interpolation-filters="sRGB">
<feFlood flood-opacity="0" result="BackgroundImageFix"/>
<feBlend mode="normal" in="SourceGraphic" in2="BackgroundImageFix" result="shape"/>
<feGaussianBlur stdDeviation="0.5" result="effect1_foregroundBlur"/>
</filter>
<filter id="filter5_f" x="14.3867" y="24.3511" width="14.6897" height="3.98276" filterUnits="userSpaceOnUse" color-interpolation-filters="sRGB">
<feFlood flood-opacity="0" result="BackgroundImageFix"/>
<feBlend mode="normal" in="SourceGraphic" in2="BackgroundImageFix" result="shape"/>
<feGaussianBlur stdDeviation="0.5" result="effect1_foregroundBlur"/>
</filter>
<linearGradient id="paint0_linear" x1="30.4533" y1="13.6895" x2="30.4533" y2="46.9998" gradientUnits="userSpaceOnUse">
<stop stop-color="#9A81FF"/>
<stop offset="1" stop-color="#F3DFFF"/>
</linearGradient>
<linearGradient id="paint1_linear" x1="30.2544" y1="20.8276" x2="30.2544" y2="24.3966" gradientUnits="userSpaceOnUse">
<stop stop-color="white"/>
<stop offset="1" stop-color="#F3DFFF"/>
</linearGradient>
<linearGradient id="paint2_linear" x1="30.2544" y1="20.8276" x2="30.2544" y2="24.3966" gradientUnits="userSpaceOnUse">
<stop stop-color="white"/>
<stop offset="1" stop-color="#F3DFFF"/>
</linearGradient>
<linearGradient id="paint3_linear" x1="30.2544" y1="20.8276" x2="30.2544" y2="24.3966" gradientUnits="userSpaceOnUse">
<stop stop-color="white"/>
<stop offset="1" stop-color="#F3DFFF"/>
</linearGradient>
<linearGradient id="paint4_linear" x1="30.2544" y1="20.8276" x2="30.2544" y2="24.3966" gradientUnits="userSpaceOnUse">
<stop stop-color="white"/>
<stop offset="1" stop-color="#F3DFFF"/>
</linearGradient>
<linearGradient id="paint5_linear" x1="30.2544" y1="20.8276" x2="30.2544" y2="24.3966" gradientUnits="userSpaceOnUse">
<stop stop-color="white"/>
<stop offset="1" stop-color="#F3DFFF"/>
</linearGradient>
<linearGradient id="paint6_linear" x1="30.2544" y1="20.8276" x2="30.2544" y2="24.3966" gradientUnits="userSpaceOnUse">
<stop stop-color="white"/>
<stop offset="1" stop-color="#F3DFFF"/>
</linearGradient>
<linearGradient id="paint7_linear" x1="30.2544" y1="20.8276" x2="30.2544" y2="24.3966" gradientUnits="userSpaceOnUse">
<stop stop-color="white"/>
<stop offset="1" stop-color="#F3DFFF"/>
</linearGradient>
<linearGradient id="paint8_linear" x1="30.2544" y1="20.8276" x2="30.2544" y2="24.3966" gradientUnits="userSpaceOnUse">
<stop stop-color="white"/>
<stop offset="1" stop-color="#F3DFFF"/>
</linearGradient>
<linearGradient id="paint9_linear" x1="30.2544" y1="20.8276" x2="30.2544" y2="24.3966" gradientUnits="userSpaceOnUse">
<stop stop-color="white"/>
<stop offset="1" stop-color="#F3DFFF"/>
</linearGradient>
<linearGradient id="paint10_linear" x1="30.2544" y1="20.8276" x2="30.2544" y2="24.3966" gradientUnits="userSpaceOnUse">
<stop stop-color="white"/>
<stop offset="1" stop-color="#F3DFFF"/>
</linearGradient>
<linearGradient id="paint11_linear" x1="17.2931" y1="7.97607" x2="17.2931" y2="41.2864" gradientUnits="userSpaceOnUse">
<stop stop-color="#6B99FF"/>
<stop offset="1" stop-color="#B4CBFF"/>
</linearGradient>
<linearGradient id="paint12_linear" x1="25.6954" y1="1" x2="25.6954" y2="34.3103" gradientUnits="userSpaceOnUse">
<stop stop-color="#40ECAE"/>
<stop offset="1" stop-color="#D6FFF0"/>
</linearGradient>
</defs>
</svg>
